<svg xmlns="http://www.w3.org/2000/svg" xmlns:xlink="http://www.w3.org/1999/xlink" width="249" height="130" viewBox="0 0 249 130">
  <defs>
    <radialGradient id="radial-gradient" cx="0.5" cy="0.472" r="0.5" gradientTransform="translate(0 0.35) scale(1 0.259)" gradientUnits="objectBoundingBox">
      <stop offset="0" stop-color="#fff" stop-opacity="0.29"/>
      <stop offset="1" stop-color="#1a1a1a" stop-opacity="0"/>
    </radialGradient>
    <linearGradient id="linear-gradient" x1="0.5" x2="0.5" y2="1" gradientUnits="objectBoundingBox">
      <stop offset="0" stop-color="#fff" stop-opacity="0.102"/>
      <stop offset="1" stop-color="#fff" stop-opacity="0.012"/>
    </linearGradient>
    <linearGradient id="linear-gradient-2" x1="0.5" x2="0.5" y2="1" gradientUnits="objectBoundingBox">
      <stop offset="0" stop-color="#fff" stop-opacity="0.102"/>
      <stop offset="1" stop-color="#1a1a1a" stop-opacity="0"/>
    </linearGradient>
    <clipPath id="clip-path">
      <rect id="Rectangle_303" data-name="Rectangle 303" width="20" height="36" transform="translate(2927 1526)" fill="#fff"/>
    </clipPath>
    <clipPath id="clip-path-2">
      <rect id="Rectangle_305" data-name="Rectangle 305" width="209" height="5" transform="translate(2947 1600)" fill="#fff"/>
    </clipPath>
  </defs>
  <g id="Group_1227" data-name="Group 1227" transform="translate(-2927 -1369)">
    <rect id="Rectangle_308" data-name="Rectangle 308" width="249" height="130" transform="translate(2927 1369)" fill="url(#radial-gradient)"/>
    <g id="Group_1222" data-name="Group 1222">
      <g id="Hero" transform="translate(2927 1369)">
        <rect id="Rectangle_162" data-name="Rectangle 162" width="229" height="36" rx="2" fill="rgba(26,26,26,0.4)"/>
        <path id="Exclusion_11" data-name="Exclusion 11" d="M227,36H2a2,2,0,0,1-2-2V2A2,2,0,0,1,2,0H227a2,2,0,0,1,2,2V34A2,2,0,0,1,227,36ZM2,1.286a1,1,0,0,0-1,1V33.715a1,1,0,0,0,1,1H227a1,1,0,0,0,1-1V2.286a1,1,0,0,0-1-1Z" transform="translate(0 0)" fill="url(#linear-gradient)"/>
        <g id="Group_1210" data-name="Group 1210" transform="translate(14 15)">
          <line id="Line_5" data-name="Line 5" x2="8" fill="none" stroke="#fff" stroke-linecap="round" stroke-width="1"/>
          <line id="Line_6" data-name="Line 6" x2="8" transform="translate(0 3)" fill="none" stroke="#fff" stroke-linecap="round" stroke-width="1"/>
          <line id="Line_7" data-name="Line 7" x2="8" transform="translate(0 6)" fill="none" stroke="#fff" stroke-linecap="round" stroke-width="1"/>
        </g>
        <path id="Path_483" data-name="Path 483" d="M2.114-7.608v-9.846H3.306v4.385h5.25v-4.385H9.748v9.846H8.556v-4.4H3.306v4.4Zm13.5.154a3.447,3.447,0,0,1-1.839-.474A3.123,3.123,0,0,1,12.59-9.255a4.487,4.487,0,0,1-.416-1.988,4.582,4.582,0,0,1,.416-2A3.259,3.259,0,0,1,13.754-14.6a3.125,3.125,0,0,1,1.748-.488,3.5,3.5,0,0,1,1.139.192,2.839,2.839,0,0,1,1.024.623,3.013,3.013,0,0,1,.736,1.137,4.837,4.837,0,0,1,.274,1.74v.481H12.982V-11.9h4.539a2.441,2.441,0,0,0-.248-1.115,1.906,1.906,0,0,0-.7-.774,1.978,1.978,0,0,0-1.07-.284,2.036,2.036,0,0,0-1.171.334,2.225,2.225,0,0,0-.757.868,2.542,2.542,0,0,0-.264,1.144v.654A3.131,3.131,0,0,0,13.6-9.654a2.048,2.048,0,0,0,.81.88,2.366,2.366,0,0,0,1.207.3,2.434,2.434,0,0,0,.81-.127,1.69,1.69,0,0,0,.627-.385,1.725,1.725,0,0,0,.409-.642l1.1.308a2.411,2.411,0,0,1-.582.978,2.793,2.793,0,0,1-1.01.654A3.71,3.71,0,0,1,15.617-7.455Zm5.33-.154v-7.385h1.1v1.115h.077a1.773,1.773,0,0,1,.731-.889,2.151,2.151,0,0,1,1.192-.341q.125,0,.313,0t.284.014v1.154q-.058-.014-.262-.046a2.845,2.845,0,0,0-.43-.031,2.012,2.012,0,0,0-.959.224,1.706,1.706,0,0,0-.663.615,1.658,1.658,0,0,0-.243.892v4.673Zm8.349.154a3.208,3.208,0,0,1-1.752-.476,3.211,3.211,0,0,1-1.173-1.332,4.483,4.483,0,0,1-.421-2,4.537,4.537,0,0,1,.421-2.014,3.205,3.205,0,0,1,1.173-1.337,3.208,3.208,0,0,1,1.752-.476,3.208,3.208,0,0,1,1.752.476,3.205,3.205,0,0,1,1.173,1.337,4.537,4.537,0,0,1,.421,2.014,4.483,4.483,0,0,1-.421,2,3.211,3.211,0,0,1-1.173,1.332A3.208,3.208,0,0,1,29.3-7.455Zm0-1.019a1.948,1.948,0,0,0,1.25-.389,2.3,2.3,0,0,0,.726-1.024,3.921,3.921,0,0,0,.236-1.375,3.961,3.961,0,0,0-.236-1.38,2.326,2.326,0,0,0-.726-1.034,1.932,1.932,0,0,0-1.25-.394,1.932,1.932,0,0,0-1.25.394,2.326,2.326,0,0,0-.726,1.034,3.961,3.961,0,0,0-.236,1.38,3.921,3.921,0,0,0,.236,1.375,2.3,2.3,0,0,0,.726,1.024A1.948,1.948,0,0,0,29.3-8.474Z" transform="translate(32.131 30.455)" fill="#fff"/>
      </g>
      <g id="Feature_Cards_-_Main" data-name="Feature Cards - Main" transform="translate(2947 1411.563)">
        <g id="Group_1209" data-name="Group 1209" transform="translate(0 0.438)">
          <rect id="Rectangle_162-2" data-name="Rectangle 162" width="229" height="36" rx="2" fill="rgba(87,87,87,0.42)"/>
        </g>
        <g id="Group_1213" data-name="Group 1213" transform="translate(12 13.156)">
          <path id="Path_482" data-name="Path 482" d="M2.114-7.864v-9.7H7.928v1.042H3.288v3.277h4.2V-12.2h-4.2v4.337Zm10.723.152a3.4,3.4,0,0,1-1.811-.466,3.075,3.075,0,0,1-1.17-1.307,4.419,4.419,0,0,1-.41-1.958,4.512,4.512,0,0,1,.41-1.972A3.209,3.209,0,0,1,11-14.75a3.078,3.078,0,0,1,1.721-.481,3.448,3.448,0,0,1,1.122.189,2.8,2.8,0,0,1,1.009.613,2.967,2.967,0,0,1,.724,1.12,4.763,4.763,0,0,1,.27,1.714v.473H10.242v-.966h4.47a2.4,2.4,0,0,0-.244-1.1,1.877,1.877,0,0,0-.691-.762,1.948,1.948,0,0,0-1.054-.279,2,2,0,0,0-1.153.329,2.191,2.191,0,0,0-.746.855,2.5,2.5,0,0,0-.26,1.127v.644a3.084,3.084,0,0,0,.286,1.394,2.017,2.017,0,0,0,.8.866,2.33,2.33,0,0,0,1.188.3,2.4,2.4,0,0,0,.8-.125,1.664,1.664,0,0,0,.618-.379,1.7,1.7,0,0,0,.4-.632l1.08.3a2.375,2.375,0,0,1-.573.964,2.751,2.751,0,0,1-.994.644A3.654,3.654,0,0,1,12.836-7.712Zm7.389.019a2.933,2.933,0,0,1-1.255-.263,2.131,2.131,0,0,1-.895-.762,2.139,2.139,0,0,1-.331-1.21,1.879,1.879,0,0,1,.246-1.016,1.744,1.744,0,0,1,.658-.613,3.515,3.515,0,0,1,.911-.334q.5-.111,1.006-.178.663-.085,1.077-.13a1.647,1.647,0,0,0,.606-.154.4.4,0,0,0,.192-.379v-.038a1.488,1.488,0,0,0-.381-1.089,1.55,1.55,0,0,0-1.153-.388,2.01,2.01,0,0,0-1.255.35,2.071,2.071,0,0,0-.639.748l-1.061-.379a2.556,2.556,0,0,1,.76-1.035,2.864,2.864,0,0,1,1.042-.521,4.362,4.362,0,0,1,1.115-.149,4.589,4.589,0,0,1,.807.083,2.639,2.639,0,0,1,.885.339,1.983,1.983,0,0,1,.713.772,2.871,2.871,0,0,1,.284,1.383v4.792H22.442v-.985h-.057a1.967,1.967,0,0,1-.379.507,2.186,2.186,0,0,1-.706.459A2.718,2.718,0,0,1,20.226-7.693Zm.17-1a2.23,2.23,0,0,0,1.12-.26,1.794,1.794,0,0,0,.691-.672,1.727,1.727,0,0,0,.234-.866v-1.023a.653.653,0,0,1-.31.154,4.7,4.7,0,0,1-.549.118q-.31.05-.6.085l-.471.059a4.339,4.339,0,0,0-.812.182,1.415,1.415,0,0,0-.606.374.955.955,0,0,0-.23.675.994.994,0,0,0,.433.878A1.91,1.91,0,0,0,20.4-8.7Zm8.9-6.439v.947H25.532v-.947Zm-2.67-1.742h1.117v6.932a1.414,1.414,0,0,0,.14.708.685.685,0,0,0,.36.313,1.384,1.384,0,0,0,.466.078,1.765,1.765,0,0,0,.3-.021l.189-.036.227,1a2.459,2.459,0,0,1-.317.088,2.455,2.455,0,0,1-.516.045,2.233,2.233,0,0,1-.926-.2,1.823,1.823,0,0,1-.748-.62,1.771,1.771,0,0,1-.3-1.051ZM36.1-10.837v-4.3h1.117v7.273H36.1V-9.095h-.076a2.369,2.369,0,0,1-.8.94,2.287,2.287,0,0,1-1.364.386,2.414,2.414,0,0,1-1.212-.3,2.07,2.07,0,0,1-.833-.909,3.437,3.437,0,0,1-.3-1.536v-4.621h1.117v4.545a1.772,1.772,0,0,0,.447,1.269,1.5,1.5,0,0,0,1.143.473,1.917,1.917,0,0,0,.85-.213,1.869,1.869,0,0,0,.729-.653A1.972,1.972,0,0,0,36.1-10.837Zm3.7,2.973v-7.273h1.08v1.1h.076a1.747,1.747,0,0,1,.72-.876,2.118,2.118,0,0,1,1.174-.336q.123,0,.308,0t.279.014v1.136q-.057-.014-.258-.045a2.8,2.8,0,0,0-.424-.031,1.982,1.982,0,0,0-.945.22,1.68,1.68,0,0,0-.653.606,1.633,1.633,0,0,0-.239.878v4.6Zm8.318.152a3.4,3.4,0,0,1-1.811-.466,3.075,3.075,0,0,1-1.17-1.307,4.42,4.42,0,0,1-.41-1.958,4.512,4.512,0,0,1,.41-1.972,3.209,3.209,0,0,1,1.146-1.335A3.078,3.078,0,0,1,48-15.231a3.448,3.448,0,0,1,1.122.189,2.8,2.8,0,0,1,1.009.613,2.967,2.967,0,0,1,.724,1.12,4.764,4.764,0,0,1,.27,1.714v.473H45.522v-.966h4.47a2.4,2.4,0,0,0-.244-1.1,1.877,1.877,0,0,0-.691-.762A1.948,1.948,0,0,0,48-14.227a2,2,0,0,0-1.153.329,2.191,2.191,0,0,0-.746.855,2.5,2.5,0,0,0-.26,1.127v.644a3.084,3.084,0,0,0,.286,1.394,2.017,2.017,0,0,0,.8.866,2.33,2.33,0,0,0,1.188.3,2.4,2.4,0,0,0,.8-.125,1.664,1.664,0,0,0,.618-.379,1.7,1.7,0,0,0,.4-.632l1.08.3a2.375,2.375,0,0,1-.573.964,2.751,2.751,0,0,1-.994.644A3.654,3.654,0,0,1,48.117-7.712ZM65.6-14.53H64.43a2.466,2.466,0,0,0-.362-.89,2.512,2.512,0,0,0-.625-.646,2.715,2.715,0,0,0-.812-.4,3.234,3.234,0,0,0-.928-.133,2.946,2.946,0,0,0-1.593.445,3.074,3.074,0,0,0-1.132,1.312,4.857,4.857,0,0,0-.419,2.126,4.857,4.857,0,0,0,.419,2.126A3.074,3.074,0,0,0,60.11-9.275,2.946,2.946,0,0,0,61.7-8.83a3.233,3.233,0,0,0,.928-.133,2.715,2.715,0,0,0,.812-.4,2.5,2.5,0,0,0,.625-.649,2.489,2.489,0,0,0,.362-.888H65.6a3.912,3.912,0,0,1-.483,1.33,3.6,3.6,0,0,1-.871,1,3.793,3.793,0,0,1-1.167.623,4.381,4.381,0,0,1-1.38.213A4.064,4.064,0,0,1,59.5-8.337a4.158,4.158,0,0,1-1.52-1.723,5.908,5.908,0,0,1-.554-2.652,5.908,5.908,0,0,1,.554-2.652,4.158,4.158,0,0,1,1.52-1.723,4.064,4.064,0,0,1,2.206-.606,4.381,4.381,0,0,1,1.38.213,3.793,3.793,0,0,1,1.167.623,3.617,3.617,0,0,1,.871.994A3.888,3.888,0,0,1,65.6-14.53ZM70.02-7.693a2.933,2.933,0,0,1-1.255-.263,2.131,2.131,0,0,1-.895-.762,2.139,2.139,0,0,1-.331-1.21,1.879,1.879,0,0,1,.246-1.016,1.744,1.744,0,0,1,.658-.613,3.515,3.515,0,0,1,.911-.334q.5-.111,1.006-.178.663-.085,1.077-.13a1.648,1.648,0,0,0,.606-.154.4.4,0,0,0,.192-.379v-.038a1.488,1.488,0,0,0-.381-1.089,1.55,1.55,0,0,0-1.153-.388,2.01,2.01,0,0,0-1.255.35,2.071,2.071,0,0,0-.639.748l-1.061-.379a2.556,2.556,0,0,1,.76-1.035,2.864,2.864,0,0,1,1.042-.521,4.362,4.362,0,0,1,1.115-.149,4.589,4.589,0,0,1,.807.083,2.639,2.639,0,0,1,.885.339,1.983,1.983,0,0,1,.713.772,2.871,2.871,0,0,1,.284,1.383v4.792H72.236v-.985h-.057a1.967,1.967,0,0,1-.379.507,2.186,2.186,0,0,1-.705.459A2.718,2.718,0,0,1,70.02-7.693Zm.17-1a2.23,2.23,0,0,0,1.12-.26A1.794,1.794,0,0,0,72-9.63a1.727,1.727,0,0,0,.234-.866v-1.023a.653.653,0,0,1-.31.154,4.7,4.7,0,0,1-.549.118q-.31.05-.6.085L70.3-11.1a4.338,4.338,0,0,0-.812.182,1.415,1.415,0,0,0-.606.374.956.956,0,0,0-.23.675.994.994,0,0,0,.433.878A1.91,1.91,0,0,0,70.191-8.7Zm5.742.833v-7.273h1.08v1.1h.076a1.747,1.747,0,0,1,.72-.876,2.118,2.118,0,0,1,1.174-.336q.123,0,.308,0t.279.014v1.136q-.057-.014-.258-.045a2.8,2.8,0,0,0-.424-.031,1.982,1.982,0,0,0-.945.22,1.68,1.68,0,0,0-.653.606,1.633,1.633,0,0,0-.239.878v4.6Zm8.014.152a2.837,2.837,0,0,1-1.605-.462,3.082,3.082,0,0,1-1.089-1.307,4.707,4.707,0,0,1-.393-2,4.667,4.667,0,0,1,.393-1.989,3.056,3.056,0,0,1,1.094-1.3,2.887,2.887,0,0,1,1.619-.459A2.288,2.288,0,0,1,85.091-15a2,2,0,0,1,.634.53q.22.3.343.485h.095v-3.58H87.28v9.7H86.2V-8.981h-.133q-.123.2-.35.5a2.038,2.038,0,0,1-.649.535A2.308,2.308,0,0,1,83.947-7.712Zm.152-1a1.823,1.823,0,0,0,1.136-.353,2.178,2.178,0,0,0,.705-.98,4.024,4.024,0,0,0,.241-1.451,3.95,3.95,0,0,0-.237-1.428,2.091,2.091,0,0,0-.7-.956,1.873,1.873,0,0,0-1.146-.343,1.881,1.881,0,0,0-1.181.362,2.176,2.176,0,0,0-.706.98,3.88,3.88,0,0,0-.234,1.385,3.954,3.954,0,0,0,.239,1.409,2.265,2.265,0,0,0,.71,1A1.833,1.833,0,0,0,84.1-8.716Zm11.064-4.792-1,.284a1.939,1.939,0,0,0-.277-.49,1.39,1.39,0,0,0-.495-.4,1.788,1.788,0,0,0-.8-.156,1.911,1.911,0,0,0-1.11.305.911.911,0,0,0-.443.774.8.8,0,0,0,.3.658,2.531,2.531,0,0,0,.947.4l1.08.265a2.993,2.993,0,0,1,1.454.722,1.7,1.7,0,0,1,.478,1.248,1.854,1.854,0,0,1-.357,1.117,2.4,2.4,0,0,1-1,.777,3.632,3.632,0,0,1-1.487.284A3.269,3.269,0,0,1,90.612-8.2a2.142,2.142,0,0,1-.923-1.411l1.061-.265a1.47,1.47,0,0,0,.575.881,1.912,1.912,0,0,0,1.11.294,2.08,2.08,0,0,0,1.243-.334.972.972,0,0,0,.462-.8.854.854,0,0,0-.265-.637,1.707,1.707,0,0,0-.814-.386l-1.212-.284a2.864,2.864,0,0,1-1.465-.736,1.764,1.764,0,0,1-.466-1.252,1.79,1.79,0,0,1,.348-1.089,2.332,2.332,0,0,1,.952-.743,3.325,3.325,0,0,1,1.371-.27,2.729,2.729,0,0,1,1.7.473A2.558,2.558,0,0,1,95.162-13.508Z" transform="translate(20.33 17.975)" fill="#fff"/>
          <g id="Group_1220" data-name="Group 1220" transform="translate(0 0.282)">
            <path id="Icon_ionic-ios-arrow-down" data-name="Icon ionic-ios-arrow-down" d="M10.189,14.041l3.025-2.647a.628.628,0,0,1,.807,0,.46.46,0,0,1,0,.708l-3.427,3a.631.631,0,0,1-.788.015L6.354,12.1a.459.459,0,0,1,0-.708.628.628,0,0,1,.807,0Z" transform="translate(-6.188 -4.246)" fill="#fff"/>
            <path id="Icon_ionic-ios-arrow-down-2" data-name="Icon ionic-ios-arrow-down" d="M10.189,12.452,13.214,15.1a.628.628,0,0,0,.807,0,.46.46,0,0,0,0-.708l-3.427-3a.631.631,0,0,0-.788-.015L6.354,14.389a.459.459,0,0,0,0,.708.628.628,0,0,0,.807,0Z" transform="translate(-6.188 -11.246)" fill="#fff"/>
          </g>
        </g>
      </g>
      <g id="Group_1219" data-name="Group 1219">
        <rect id="Bottom" width="229" height="36" rx="2" transform="translate(2927 1463)" fill="none"/>
        <path id="Exclusion_13" data-name="Exclusion 13" d="M227,36H2a2,2,0,0,1-2-2V2A2,2,0,0,1,2,0H227a2,2,0,0,1,2,2V34A2,2,0,0,1,227,36ZM2,1.286a1,1,0,0,0-1,1V33.715a1,1,0,0,0,1,1H227a1,1,0,0,0,1-1V2.286a1,1,0,0,0-1-1Z" transform="translate(2927 1463)" fill="url(#linear-gradient-2)"/>
      </g>
      <g id="Group_1221" data-name="Group 1221" transform="translate(0 -110)">
        <g id="Mask_Group_23" data-name="Mask Group 23" clip-path="url(#clip-path)">
          <g id="Rectangle_301" data-name="Rectangle 301" transform="translate(2927 1526)" fill="none" stroke="rgba(255,255,255,0.1)" stroke-width="1" stroke-dasharray="4">
            <rect width="229" height="36" rx="2" stroke="none"/>
            <rect x="0.5" y="0.5" width="228" height="35" rx="1.5" fill="none"/>
          </g>
        </g>
        <g id="Mask_Group_24" data-name="Mask Group 24" transform="translate(0 -43)" clip-path="url(#clip-path-2)">
          <g id="Rectangle_304" data-name="Rectangle 304" transform="translate(2927 1569)" fill="none" stroke="rgba(255,255,255,0.1)" stroke-width="1" stroke-dasharray="4">
            <rect width="229" height="36" rx="2" stroke="none"/>
            <rect x="0.5" y="0.5" width="228" height="35" rx="1.5" fill="none"/>
          </g>
        </g>
      </g>
    </g>
    <path id="Exclusion_14" data-name="Exclusion 14" d="M227,36H2a2,2,0,0,1-2-2V2A2,2,0,0,1,2,0H227a2,2,0,0,1,2,2V34A2,2,0,0,1,227,36ZM2,1.286a1,1,0,0,0-1,1V33.715a1,1,0,0,0,1,1H227a1,1,0,0,0,1-1V2.286a1,1,0,0,0-1-1Z" transform="translate(2947 1412)" fill="url(#linear-gradient)"/>
  </g>
</svg>
