<svg xmlns="http://www.w3.org/2000/svg" xmlns:xlink="http://www.w3.org/1999/xlink" width="502" height="261" viewBox="0 0 502 261">
  <defs>
    <radialGradient id="radial-gradient" cx="0.5" cy="0.5" r="0.5" gradientUnits="objectBoundingBox">
      <stop offset="0" stop-color="#a1a1a1" stop-opacity="0.502"/>
      <stop offset="1" stop-color="#1e1e1e" stop-opacity="0"/>
    </radialGradient>
    <filter id="Rectangle_162" x="44" y="95" width="458" height="72" filterUnits="userSpaceOnUse">
      <feOffset dy="3" input="SourceAlpha"/>
      <feGaussianBlur stdDeviation="3" result="blur"/>
      <feFlood flood-opacity="0.067" result="color"/>
      <feComposite operator="out" in="SourceGraphic" in2="blur"/>
      <feComposite operator="in" in="color"/>
      <feComposite operator="in" in2="SourceGraphic"/>
    </filter>
    <linearGradient id="linear-gradient" x1="0.5" x2="0.5" y2="1" gradientUnits="objectBoundingBox">
      <stop offset="0" stop-color="#fff" stop-opacity="0.071"/>
      <stop offset="1" stop-color="#1e1e1e" stop-opacity="0"/>
    </linearGradient>
    <linearGradient id="linear-gradient-2" x1="0.5" x2="0.5" y2="1" gradientUnits="objectBoundingBox">
      <stop offset="0" stop-color="#fff" stop-opacity="0.31"/>
      <stop offset="1" stop-color="gray" stop-opacity="0"/>
    </linearGradient>
  </defs>
  <g id="Group_1150" data-name="Group 1150" transform="translate(-1401 -1774)">
    <ellipse id="Ellipse_29" data-name="Ellipse 29" cx="251" cy="107" rx="251" ry="107" transform="translate(1401 1808)" fill="url(#radial-gradient)"/>
    <g id="Group_1143" data-name="Group 1143">
      <g id="Rectangle_162-2" data-name="Rectangle 162" transform="translate(1401 1774)" fill="rgba(45,45,45,0.4)" stroke="rgba(116,116,116,0.25)" stroke-width="1">
        <rect width="458" height="72" rx="8" stroke="none"/>
        <rect x="0.5" y="0.5" width="457" height="71" rx="7.5" fill="none"/>
      </g>
      <g id="Group_1142" data-name="Group 1142">
        <g id="Group_1141" data-name="Group 1141" transform="translate(0 -0.5)">
          <line id="Line_5" data-name="Line 5" x2="19" transform="translate(1425 1804.5)" fill="none" stroke="#c5c5c5" stroke-linecap="round" stroke-width="3"/>
          <line id="Line_6" data-name="Line 6" x2="19" transform="translate(1425 1810.5)" fill="none" stroke="#c5c5c5" stroke-linecap="round" stroke-width="3"/>
          <line id="Line_7" data-name="Line 7" x2="19" transform="translate(1425 1816.5)" fill="none" stroke="#c5c5c5" stroke-linecap="round" stroke-width="3"/>
        </g>
        <text id="Hero" transform="translate(1469 1819)" fill="rgba(255,255,255,0.8)" font-size="25" font-family="Inter-Regular, Inter"><tspan x="0" y="0">Hero</tspan></text>
      </g>
    </g>
    <g id="Group_1146" data-name="Group 1146" transform="translate(0 5)">
      <g data-type="innerShadowGroup">
        <rect id="Rectangle_162-3" data-name="Rectangle 162" width="458" height="72" rx="8" transform="translate(1445 1864)" fill="rgba(87,87,87,0.42)"/>
        <g transform="matrix(1, 0, 0, 1, 1401, 1769)" filter="url(#Rectangle_162)">
          <rect id="Rectangle_162-4" data-name="Rectangle 162" width="458" height="72" rx="8" transform="translate(44 95)" fill="#fff"/>
        </g>
        <g id="Rectangle_162-5" data-name="Rectangle 162" transform="translate(1445 1864)" fill="none" stroke="rgba(255,255,255,0.15)" stroke-width="1">
          <rect width="458" height="72" rx="8" stroke="none"/>
          <rect x="0.5" y="0.5" width="457" height="71" rx="7.5" fill="none"/>
        </g>
      </g>
      <g id="Group_1145" data-name="Group 1145">
        <g id="Group_1144" data-name="Group 1144" transform="translate(0 -1)">
          <line id="Line_5-2" data-name="Line 5" x2="19" transform="translate(1469 1895)" fill="none" stroke="#fff" stroke-linecap="round" stroke-width="3"/>
          <line id="Line_6-2" data-name="Line 6" x2="19" transform="translate(1469 1901)" fill="none" stroke="#fff" stroke-linecap="round" stroke-width="3"/>
          <line id="Line_7-2" data-name="Line 7" x2="19" transform="translate(1469 1907)" fill="none" stroke="#fff" stroke-linecap="round" stroke-width="3"/>
        </g>
        <text id="Product_Tiles" data-name="Product Tiles" transform="translate(1512 1909)" fill="rgba(255,255,255,0.83)" font-size="25" font-family="Inter-Regular, Inter"><tspan x="0" y="0">Product Tiles</tspan></text>
      </g>
    </g>
    <g id="Group_1149" data-name="Group 1149">
      <rect id="Rectangle_162-6" data-name="Rectangle 162" width="458" height="72" rx="8" transform="translate(1401 1963)" fill="url(#linear-gradient)"/>
      <g id="Group_1148" data-name="Group 1148" transform="translate(0 0)">
        <g id="Group_1147" data-name="Group 1147" transform="translate(0 0.871)">
          <line id="Line_5-3" data-name="Line 5" x2="19" transform="translate(1425 1992.129)" fill="none" stroke="rgba(255,255,255,0.17)" stroke-linecap="round" stroke-width="3"/>
          <line id="Line_6-3" data-name="Line 6" x2="19" transform="translate(1425 1998.129)" fill="none" stroke="rgba(255,255,255,0.17)" stroke-linecap="round" stroke-width="3"/>
          <line id="Line_7-3" data-name="Line 7" x2="19" transform="translate(1425 2004.129)" fill="none" stroke="rgba(255,255,255,0.17)" stroke-linecap="round" stroke-width="3"/>
        </g>
        <path id="Path_468" data-name="Path 468" d="M3.17-7.861V-26.288H14.22v1.979H5.4v6.226h7.99V-16.1H5.4v8.242Zm19.363.288a6.451,6.451,0,0,1-3.442-.886,5.844,5.844,0,0,1-2.222-2.483,8.4,8.4,0,0,1-.778-3.721,8.574,8.574,0,0,1,.778-3.748,6.1,6.1,0,0,1,2.177-2.537,5.848,5.848,0,0,1,3.271-.913,6.551,6.551,0,0,1,2.132.36,5.313,5.313,0,0,1,1.917,1.165,5.639,5.639,0,0,1,1.377,2.128,9.052,9.052,0,0,1,.513,3.257v.9H17.6v-1.836H26.1a4.568,4.568,0,0,0-.463-2.087,3.567,3.567,0,0,0-1.314-1.449,3.7,3.7,0,0,0-2-.531,3.81,3.81,0,0,0-2.191.625A4.164,4.164,0,0,0,18.709-17.7a4.758,4.758,0,0,0-.495,2.141v1.224a5.86,5.86,0,0,0,.544,2.65,3.832,3.832,0,0,0,1.516,1.647,4.428,4.428,0,0,0,2.258.562,4.555,4.555,0,0,0,1.516-.238,3.162,3.162,0,0,0,1.174-.72,3.228,3.228,0,0,0,.765-1.2l2.051.576a4.513,4.513,0,0,1-1.089,1.831,5.227,5.227,0,0,1-1.89,1.224A6.943,6.943,0,0,1,22.533-7.573Zm13.029.036a5.573,5.573,0,0,1-2.384-.5,4.049,4.049,0,0,1-1.7-1.449,4.064,4.064,0,0,1-.63-2.3,3.571,3.571,0,0,1,.468-1.93,3.314,3.314,0,0,1,1.251-1.165,6.679,6.679,0,0,1,1.732-.634q.949-.211,1.912-.337,1.26-.162,2.047-.247a3.131,3.131,0,0,0,1.152-.292.758.758,0,0,0,.364-.72v-.072a2.828,2.828,0,0,0-.724-2.069,2.945,2.945,0,0,0-2.191-.738,3.819,3.819,0,0,0-2.384.666A3.936,3.936,0,0,0,33.259-17.9l-2.015-.72a4.856,4.856,0,0,1,1.444-1.966,5.442,5.442,0,0,1,1.979-.99,8.29,8.29,0,0,1,2.119-.283,8.719,8.719,0,0,1,1.534.157A5.015,5.015,0,0,1,40-21.06a3.768,3.768,0,0,1,1.354,1.467,5.456,5.456,0,0,1,.54,2.627v9.106H39.773V-9.732h-.108a3.738,3.738,0,0,1-.72.963A4.154,4.154,0,0,1,37.6-7.9,5.165,5.165,0,0,1,35.562-7.537Zm.324-1.908a4.238,4.238,0,0,0,2.128-.495,3.41,3.41,0,0,0,1.314-1.278,3.281,3.281,0,0,0,.445-1.647v-1.943a1.24,1.24,0,0,1-.589.292,8.937,8.937,0,0,1-1.044.225q-.589.094-1.143.162t-.9.112a8.245,8.245,0,0,0-1.543.346,2.689,2.689,0,0,0-1.152.711,1.816,1.816,0,0,0-.436,1.282,1.889,1.889,0,0,0,.823,1.669A3.63,3.63,0,0,0,35.886-9.444ZM51.794-21.681v1.8H44.632v-1.8Zm-5.075-3.311h2.123V-11.82a2.688,2.688,0,0,0,.265,1.345,1.3,1.3,0,0,0,.684.594,2.631,2.631,0,0,0,.886.148,3.353,3.353,0,0,0,.576-.04q.225-.04.36-.067l.432,1.908a4.672,4.672,0,0,1-.6.166,4.664,4.664,0,0,1-.981.085A4.244,4.244,0,0,1,48.7-8.068a3.465,3.465,0,0,1-1.422-1.179,3.366,3.366,0,0,1-.562-2ZM63.707-13.511v-8.17H65.83v13.82H63.707V-10.2h-.144a4.5,4.5,0,0,1-1.512,1.786,4.346,4.346,0,0,1-2.591.733,4.588,4.588,0,0,1-2.3-.571A3.934,3.934,0,0,1,55.573-9.98,6.532,6.532,0,0,1,55-12.9v-8.782H57.12v8.638a3.367,3.367,0,0,0,.85,2.411,2.858,2.858,0,0,0,2.173.9,3.643,3.643,0,0,0,1.615-.4,3.551,3.551,0,0,0,1.386-1.242A3.746,3.746,0,0,0,63.707-13.511Zm6.01,5.651v-13.82h2.051v2.087h.144a3.319,3.319,0,0,1,1.368-1.665,4.026,4.026,0,0,1,2.231-.639q.234,0,.585.009t.531.027V-19.7q-.108-.027-.49-.085a5.326,5.326,0,0,0-.805-.058,3.766,3.766,0,0,0-1.8.418A3.193,3.193,0,0,0,72.3-18.275a3.1,3.1,0,0,0-.454,1.669v8.746Zm14.792.288a6.451,6.451,0,0,1-3.442-.886,5.844,5.844,0,0,1-2.222-2.483,8.4,8.4,0,0,1-.778-3.721,8.575,8.575,0,0,1,.778-3.748,6.1,6.1,0,0,1,2.177-2.537,5.848,5.848,0,0,1,3.271-.913,6.551,6.551,0,0,1,2.132.36,5.313,5.313,0,0,1,1.917,1.165,5.639,5.639,0,0,1,1.377,2.128,9.052,9.052,0,0,1,.513,3.257v.9H79.579v-1.836h8.494a4.568,4.568,0,0,0-.463-2.087A3.567,3.567,0,0,0,86.3-19.423a3.7,3.7,0,0,0-2-.531,3.81,3.81,0,0,0-2.191.625A4.164,4.164,0,0,0,80.685-17.7a4.758,4.758,0,0,0-.495,2.141v1.224a5.861,5.861,0,0,0,.544,2.65,3.832,3.832,0,0,0,1.516,1.647,4.428,4.428,0,0,0,2.258.562,4.555,4.555,0,0,0,1.516-.238,3.162,3.162,0,0,0,1.174-.72,3.228,3.228,0,0,0,.765-1.2l2.051.576a4.513,4.513,0,0,1-1.089,1.831,5.227,5.227,0,0,1-1.89,1.224A6.943,6.943,0,0,1,84.509-7.573Zm31.2-12.957h-2.231a4.686,4.686,0,0,0-.688-1.692,4.773,4.773,0,0,0-1.188-1.228,5.159,5.159,0,0,0-1.543-.751,6.145,6.145,0,0,0-1.764-.252,5.6,5.6,0,0,0-3.028.846,5.841,5.841,0,0,0-2.15,2.492,9.23,9.23,0,0,0-.8,4.04,9.23,9.23,0,0,0,.8,4.04,5.841,5.841,0,0,0,2.15,2.492A5.6,5.6,0,0,0,108.3-9.7a6.145,6.145,0,0,0,1.764-.252,5.159,5.159,0,0,0,1.543-.751,4.744,4.744,0,0,0,1.188-1.233,4.73,4.73,0,0,0,.688-1.687h2.231a7.433,7.433,0,0,1-.918,2.528A6.849,6.849,0,0,1,113.14-9.2a7.208,7.208,0,0,1-2.218,1.183,8.325,8.325,0,0,1-2.623.4,7.722,7.722,0,0,1-4.193-1.152,7.9,7.9,0,0,1-2.888-3.275,11.228,11.228,0,0,1-1.053-5.039,11.228,11.228,0,0,1,1.053-5.039,7.9,7.9,0,0,1,2.888-3.275A7.722,7.722,0,0,1,108.3-26.54a8.325,8.325,0,0,1,2.623.4,7.208,7.208,0,0,1,2.218,1.183,6.873,6.873,0,0,1,1.656,1.89A7.389,7.389,0,0,1,115.713-20.529Zm7.378,12.993a5.573,5.573,0,0,1-2.384-.5,4.049,4.049,0,0,1-1.7-1.449,4.064,4.064,0,0,1-.63-2.3,3.571,3.571,0,0,1,.468-1.93,3.314,3.314,0,0,1,1.251-1.165,6.679,6.679,0,0,1,1.732-.634q.949-.211,1.912-.337,1.26-.162,2.047-.247a3.131,3.131,0,0,0,1.152-.292.758.758,0,0,0,.364-.72v-.072a2.828,2.828,0,0,0-.724-2.069,2.945,2.945,0,0,0-2.191-.738,3.819,3.819,0,0,0-2.384.666,3.936,3.936,0,0,0-1.215,1.422l-2.015-.72a4.856,4.856,0,0,1,1.444-1.966,5.442,5.442,0,0,1,1.979-.99,8.29,8.29,0,0,1,2.119-.283,8.719,8.719,0,0,1,1.534.157,5.015,5.015,0,0,1,1.683.643,3.768,3.768,0,0,1,1.354,1.467,5.456,5.456,0,0,1,.54,2.627v9.106H127.3V-9.732h-.108a3.738,3.738,0,0,1-.72.963,4.153,4.153,0,0,1-1.341.873A5.165,5.165,0,0,1,123.091-7.537Zm.324-1.908a4.238,4.238,0,0,0,2.128-.495,3.41,3.41,0,0,0,1.314-1.278,3.281,3.281,0,0,0,.445-1.647v-1.943a1.24,1.24,0,0,1-.589.292,8.937,8.937,0,0,1-1.044.225q-.589.094-1.143.162t-.9.112a8.245,8.245,0,0,0-1.543.346,2.689,2.689,0,0,0-1.152.711,1.816,1.816,0,0,0-.436,1.282,1.889,1.889,0,0,0,.823,1.669A3.63,3.63,0,0,0,123.415-9.444Zm9.9,1.584v-13.82h2.051v2.087h.144a3.319,3.319,0,0,1,1.368-1.665,4.026,4.026,0,0,1,2.231-.639q.234,0,.585.009t.531.027V-19.7q-.108-.027-.49-.085a5.326,5.326,0,0,0-.805-.058,3.766,3.766,0,0,0-1.8.418,3.193,3.193,0,0,0-1.242,1.152,3.1,3.1,0,0,0-.454,1.669v8.746Zm14.216.288a5.391,5.391,0,0,1-3.05-.877,5.857,5.857,0,0,1-2.069-2.483,8.945,8.945,0,0,1-.747-3.8,8.868,8.868,0,0,1,.747-3.779,5.807,5.807,0,0,1,2.078-2.474,5.486,5.486,0,0,1,3.077-.873,4.348,4.348,0,0,1,2.137.445,3.808,3.808,0,0,1,1.206,1.008q.418.562.652.922h.18v-6.8h2.123V-7.861h-2.051V-9.984h-.252q-.234.378-.666.949a3.872,3.872,0,0,1-1.233,1.017A4.385,4.385,0,0,1,147.529-7.573Zm.288-1.908a3.464,3.464,0,0,0,2.159-.67,4.138,4.138,0,0,0,1.341-1.863,7.648,7.648,0,0,0,.459-2.758,7.507,7.507,0,0,0-.45-2.713,3.973,3.973,0,0,0-1.332-1.818,3.56,3.56,0,0,0-2.177-.652,3.575,3.575,0,0,0-2.245.688,4.136,4.136,0,0,0-1.341,1.863,7.374,7.374,0,0,0-.445,2.632,7.515,7.515,0,0,0,.454,2.677,4.3,4.3,0,0,0,1.35,1.908A3.484,3.484,0,0,0,147.817-9.48Zm20.011-9.106-1.908.54a3.685,3.685,0,0,0-.526-.931,2.641,2.641,0,0,0-.94-.751,3.4,3.4,0,0,0-1.521-.3,3.631,3.631,0,0,0-2.11.58,1.732,1.732,0,0,0-.841,1.471,1.513,1.513,0,0,0,.576,1.251,4.81,4.81,0,0,0,1.8.765l2.051.5a5.688,5.688,0,0,1,2.762,1.372,3.235,3.235,0,0,1,.909,2.371,3.524,3.524,0,0,1-.679,2.123,4.569,4.569,0,0,1-1.894,1.476,6.9,6.9,0,0,1-2.825.54,6.213,6.213,0,0,1-3.5-.918,4.07,4.07,0,0,1-1.755-2.681l2.015-.5A2.793,2.793,0,0,0,160.535-10a3.633,3.633,0,0,0,2.11.558,3.952,3.952,0,0,0,2.362-.634,1.848,1.848,0,0,0,.877-1.525,1.622,1.622,0,0,0-.5-1.21,3.243,3.243,0,0,0-1.548-.733l-2.3-.54a5.443,5.443,0,0,1-2.785-1.4,3.352,3.352,0,0,1-.886-2.38,3.4,3.4,0,0,1,.661-2.069,4.431,4.431,0,0,1,1.809-1.413,6.319,6.319,0,0,1,2.6-.513,5.185,5.185,0,0,1,3.226.9A4.861,4.861,0,0,1,167.828-18.586Z" transform="translate(1467.627 2015.54)" fill="url(#linear-gradient-2)"/>
      </g>
    </g>
  </g>
</svg>
