<svg xmlns="http://www.w3.org/2000/svg" xmlns:xlink="http://www.w3.org/1999/xlink" width="502" height="261" viewBox="0 0 502 261">
  <defs>
    <clipPath id="clip-path">
      <rect id="Rectangle_280" data-name="Rectangle 280" width="67.454" height="225.548" transform="translate(0 0)" fill="#fff" stroke="#707070" stroke-width="1"/>
    </clipPath>
    <linearGradient id="linear-gradient" x1="0.5" x2="0.5" y2="1" gradientUnits="objectBoundingBox">
      <stop offset="0" stop-color="#fff" stop-opacity="0.251"/>
      <stop offset="1" stop-color="#fff" stop-opacity="0"/>
    </linearGradient>
    <clipPath id="clip-path-2">
      <rect id="Rectangle_284" data-name="Rectangle 284" width="59.022" height="199.199" transform="translate(0 0)" fill="#fff" stroke="#707070" stroke-width="1"/>
    </clipPath>
    <linearGradient id="linear-gradient-2" x1="0.5" x2="0.5" y2="1" gradientUnits="objectBoundingBox">
      <stop offset="0" stop-color="#fff" stop-opacity="0.149"/>
      <stop offset="1" stop-color="#fff" stop-opacity="0"/>
    </linearGradient>
    <clipPath id="clip-path-3">
      <rect id="Rectangle_280-2" data-name="Rectangle 280" width="68.507" height="225.548" transform="translate(0 0)" fill="#fff" stroke="#707070" stroke-width="1"/>
    </clipPath>
    <linearGradient id="linear-gradient-3" y1="1" y2="0" xlink:href="#linear-gradient"/>
    <clipPath id="clip-path-4">
      <rect id="Rectangle_284-2" data-name="Rectangle 284" width="57.968" height="199.199" transform="translate(0 0)" fill="#fff" stroke="#707070" stroke-width="1"/>
    </clipPath>
    <linearGradient id="linear-gradient-4" y1="1" y2="0" xlink:href="#linear-gradient-2"/>
    <linearGradient id="linear-gradient-5" x1="0.5" x2="0.5" y2="1" gradientUnits="objectBoundingBox">
      <stop offset="0" stop-color="#fff" stop-opacity="0.039"/>
      <stop offset="1" stop-color="#141414" stop-opacity="0"/>
    </linearGradient>
    <radialGradient id="radial-gradient" cx="0.5" cy="0.286" r="0.447" gradientTransform="translate(1.07 -0.214) rotate(90) scale(1 1.99)" gradientUnits="objectBoundingBox">
      <stop offset="0" stop-color="#fff" stop-opacity="0.29"/>
      <stop offset="1" stop-color="#141414" stop-opacity="0"/>
    </radialGradient>
  </defs>
  <g id="Group_1176" data-name="Group 1176" transform="translate(-2693 -1041)">
    <g id="Rectangle_289" data-name="Rectangle 289" transform="translate(2693 1041)" fill="rgba(255,255,255,0)" stroke="rgba(26,26,26,0)" stroke-width="1">
      <rect width="502" height="261" stroke="none"/>
      <rect x="0.5" y="0.5" width="501" height="260" fill="none"/>
    </g>
    <g id="Group_1175" data-name="Group 1175" transform="translate(1.378 -336.582)">
      <g id="Mask_Group_20" data-name="Mask Group 20" transform="translate(2784.645 1405.426)" clip-path="url(#clip-path)">
        <g id="Group_1160" data-name="Group 1160" transform="translate(-0.001 0)">
          <rect id="Rectangle_260" data-name="Rectangle 260" width="169.688" height="224.494" rx="16" transform="translate(0 0)" fill="rgba(26,26,26,0)"/>
          <path id="Exclusion_3" data-name="Exclusion 3" d="M154.742,225.547H16a16,16,0,0,1-16-16V16A16,16,0,0,1,16,0H154.742a16,16,0,0,1,16,16V209.548a16,16,0,0,1-16,16ZM16.923.865a16.018,16.018,0,0,0-16,16V208.683a16.018,16.018,0,0,0,16,16h136.9a16.018,16.018,0,0,0,16-16V16.864a16.018,16.018,0,0,0-16-16Z" transform="translate(0 0)" fill="url(#linear-gradient)"/>
        </g>
      </g>
      <g id="Mask_Group_21" data-name="Mask Group 21" transform="translate(2725.622 1431.775)" clip-path="url(#clip-path-2)">
        <g id="Group_1173" data-name="Group 1173" transform="translate(0 0)">
          <rect id="Rectangle_281" data-name="Rectangle 281" width="145.447" height="198.145" rx="16" transform="translate(0 0)" fill="rgba(26,26,26,0)"/>
          <path id="Exclusion_7" data-name="Exclusion 7" d="M129.447,199.2H16a16,16,0,0,1-16-16V16A16,16,0,0,1,16,0H129.447a16,16,0,0,1,16,16V183.2a16,16,0,0,1-16,16ZM16.786.763a16.017,16.017,0,0,0-16,16V182.435a16.018,16.018,0,0,0,16,16H128.66a16.018,16.018,0,0,0,16-16V16.763a16.018,16.018,0,0,0-16-16Z" transform="translate(0 0)" fill="url(#linear-gradient-2)"/>
        </g>
      </g>
      <g id="Mask_Group_20-2" data-name="Mask Group 20" transform="translate(3032.325 1405.426)" clip-path="url(#clip-path-3)">
        <g id="Group_1160-2" data-name="Group 1160" transform="translate(-102.235 0)">
          <rect id="Rectangle_260-2" data-name="Rectangle 260" width="170.742" height="224.494" rx="16" transform="translate(0.001 0)" fill="rgba(26,26,26,0)"/>
          <path id="Exclusion_3-2" data-name="Exclusion 3" d="M154.742,225.547H16a16,16,0,0,1-16-16V16A16,16,0,0,1,16,0H154.742a16,16,0,0,1,16,16V209.547a16,16,0,0,1-16,16ZM16.923.864a16.018,16.018,0,0,0-16,16V208.683a16.018,16.018,0,0,0,16,16h136.9a16.018,16.018,0,0,0,16-16V16.864a16.018,16.018,0,0,0-16-16Z" transform="translate(170.742 225.548) rotate(180)" fill="url(#linear-gradient-3)"/>
        </g>
      </g>
      <g id="Mask_Group_21-2" data-name="Mask Group 21" transform="translate(3100.833 1431.774)" clip-path="url(#clip-path-4)">
        <g id="Group_1173-2" data-name="Group 1173" transform="translate(-87.479 0)">
          <rect id="Rectangle_281-2" data-name="Rectangle 281" width="145.447" height="198.145" rx="16" transform="translate(0)" fill="rgba(26,26,26,0)"/>
          <path id="Exclusion_7-2" data-name="Exclusion 7" d="M129.446,199.2H16a16,16,0,0,1-16-16V16A16,16,0,0,1,16,0H129.446a16,16,0,0,1,16,16V183.2a16,16,0,0,1-16,16ZM16.786.763a16.018,16.018,0,0,0-16,16V182.435a16.017,16.017,0,0,0,16,16H128.66a16.017,16.017,0,0,0,16-16V16.763a16.018,16.018,0,0,0-16-16Z" transform="translate(145.447 199.199) rotate(180)" fill="url(#linear-gradient-4)"/>
        </g>
      </g>
      <g id="Group_1174" data-name="Group 1174" transform="translate(2852.588 1377.582)">
        <path id="Subtraction_18" data-name="Subtraction 18" d="M163.419,253.127H16a16,16,0,0,1-16-16V16A16,16,0,0,1,16,0H163.419a16,16,0,0,1,16,16V237.127a16,16,0,0,1-16,16ZM21.578,14.548a8.009,8.009,0,0,0-8,8v96.017a8.009,8.009,0,0,0,8,8H157.451a8.009,8.009,0,0,0,8-8V22.547a8.008,8.008,0,0,0-8-8Z" transform="translate(0.188 0.01)" fill="url(#linear-gradient-5)"/>
        <path id="Subtraction_16" data-name="Subtraction 16" d="M163.419,253.127H16a16,16,0,0,1-16-16V16A16,16,0,0,1,16,0H163.419a16,16,0,0,1,16,16V237.127a16,16,0,0,1-16,16ZM21.578,14.548a8.009,8.009,0,0,0-8,8v96.017a8.009,8.009,0,0,0,8,8H157.451a8.009,8.009,0,0,0,8-8V22.547a8.008,8.008,0,0,0-8-8Z" transform="translate(0 0.436)" fill="url(#radial-gradient)"/>
        <path id="Exclusion_2" data-name="Exclusion 2" d="M163.645,253.136H16a16,16,0,0,1-16-16V16A16,16,0,0,1,16,0H163.645a16,16,0,0,1,16,16V237.136a16,16,0,0,1-16,16ZM16.971.97a16.018,16.018,0,0,0-16,16v219.2a16.018,16.018,0,0,0,16,16h145.7a16.018,16.018,0,0,0,16-16V16.97a16.018,16.018,0,0,0-16-16Z" transform="translate(0.076 0)" fill="url(#linear-gradient)"/>
        <path id="Subtraction_17" data-name="Subtraction 17" d="M163.419,253.127H16a16,16,0,0,1-16-16V16A16,16,0,0,1,16,0H163.419a16,16,0,0,1,16,16V237.127a16,16,0,0,1-16,16ZM21.578,14.548a8.009,8.009,0,0,0-8,8v96.017a8.009,8.009,0,0,0,8,8H157.451a8.009,8.009,0,0,0,8-8V22.547a8.008,8.008,0,0,0-8-8Z" transform="translate(0 0.436)" fill="url(#radial-gradient)"/>
        <text id="Hover_over_me" data-name="Hover over me" transform="translate(14.366 144.776)" fill="#d3d3d3" font-size="8" font-family="Inter-Regular, Inter" letter-spacing="0.04em"><tspan x="0" y="0">Hover over me</tspan></text>
      </g>
      <path id="Subtraction_19" data-name="Subtraction 19" d="M163.419,253.127H16a16,16,0,0,1-16-16V16A16,16,0,0,1,16,0H163.419a16,16,0,0,1,16,16V237.127a16,16,0,0,1-16,16ZM21.578,14.548a8.009,8.009,0,0,0-8,8v96.017a8.009,8.009,0,0,0,8,8H157.451a8.009,8.009,0,0,0,8-8V22.547a8.008,8.008,0,0,0-8-8Z" transform="translate(2852.513 1378.018)" fill="url(#radial-gradient)"/>
      <path id="Exclusion_8" data-name="Exclusion 8" d="M163.645,253.136H16a16,16,0,0,1-16-16V16A16,16,0,0,1,16,0H163.645a16,16,0,0,1,16,16V237.136a16,16,0,0,1-16,16ZM16.971.97a16.018,16.018,0,0,0-16,16v219.2a16.018,16.018,0,0,0,16,16h145.7a16.018,16.018,0,0,0,16-16V16.97a16.018,16.018,0,0,0-16-16Z" transform="translate(2852.588 1377.582)" fill="url(#linear-gradient)"/>
    </g>
  </g>
</svg>
