<svg xmlns="http://www.w3.org/2000/svg" xmlns:xlink="http://www.w3.org/1999/xlink" width="474" height="250" viewBox="0 0 474 250">
  <defs>
    <linearGradient id="linear-gradient" x1="0.5" x2="0.5" y2="1" gradientUnits="objectBoundingBox">
      <stop offset="0" stop-color="#fff" stop-opacity="0.039"/>
      <stop offset="1" stop-color="#141414" stop-opacity="0"/>
    </linearGradient>
    <clipPath id="clip-path">
      <rect id="Rectangle_271" data-name="Rectangle 271" width="77" height="156" transform="translate(-0.465 -0.306)" fill="#fff" stroke="#707070" stroke-width="1"/>
    </clipPath>
    <linearGradient id="linear-gradient-2" x1="0.5" y1="1" x2="0.5" gradientUnits="objectBoundingBox">
      <stop offset="0" stop-color="#fff" stop-opacity="0.251"/>
      <stop offset="1" stop-color="#fff" stop-opacity="0"/>
    </linearGradient>
    <clipPath id="clip-path-2">
      <rect id="Rectangle_275" data-name="Rectangle 275" width="124" height="250" transform="translate(0.295)" fill="#fff" stroke="#707070" stroke-width="1"/>
    </clipPath>
    <clipPath id="clip-path-3">
      <rect id="Rectangle_267" data-name="Rectangle 267" width="77" height="156" transform="translate(0.37 -0.306)" fill="#fff" stroke="#707070" stroke-width="1"/>
    </clipPath>
    <linearGradient id="linear-gradient-4" y1="0" y2="1" xlink:href="#linear-gradient-2"/>
    <clipPath id="clip-path-4">
      <rect id="Rectangle_263" data-name="Rectangle 263" width="125" height="250" transform="translate(-0.455)" fill="#fff" stroke="#707070" stroke-width="1"/>
    </clipPath>
    <radialGradient id="radial-gradient" cx="0.5" cy="0.286" r="0.447" gradientTransform="translate(1.07 -0.214) rotate(90) scale(1 1.99)" gradientUnits="objectBoundingBox">
      <stop offset="0" stop-color="#fff" stop-opacity="0.29"/>
      <stop offset="1" stop-color="#141414" stop-opacity="0"/>
    </radialGradient>
  </defs>
  <g id="Group_1168" data-name="Group 1168" transform="translate(-3034 -1642)">
    <path id="Subtraction_18" data-name="Subtraction 18" d="M-5432.221,6742.991H-5576a15.894,15.894,0,0,1-11.314-4.687,15.894,15.894,0,0,1-4.687-11.314V6511a15.892,15.892,0,0,1,4.687-11.314A15.892,15.892,0,0,1-5576,6495h143.778a15.9,15.9,0,0,1,11.314,4.687,15.9,15.9,0,0,1,4.686,11.314v215.991a15.9,15.9,0,0,1-4.686,11.314A15.9,15.9,0,0,1-5432.221,6742.991ZM-5570.7,6509.252a8.01,8.01,0,0,0-8,8V6611a8.009,8.009,0,0,0,8,8h132.791a8.009,8.009,0,0,0,8-8v-93.743a8.01,8.01,0,0,0-8-8Z" transform="translate(8775.11 -4851.991)" fill="url(#linear-gradient)"/>
    <g id="Group_1165" data-name="Group 1165">
      <g id="Mask_Group_18" data-name="Mask Group 18" transform="translate(3431.465 1679.306)" opacity="0.82" clip-path="url(#clip-path)">
        <g id="Group_1162" data-name="Group 1162" transform="translate(-46.465 12.871)">
          <rect id="Rectangle_268" data-name="Rectangle 268" width="88" height="128" rx="16" transform="translate(2 -0.176)" fill="rgba(26,26,26,0)"/>
          <path id="Exclusion_5" data-name="Exclusion 5" d="M74,127H16A16,16,0,0,1,0,111V16A16,16,0,0,1,16,0H74A16,16,0,0,1,90,16v95a16,16,0,0,1-16,16ZM16.486.486a16.018,16.018,0,0,0-16,16v94.028a16.018,16.018,0,0,0,16,16H73.514a16.018,16.018,0,0,0,16-16V16.486a16.018,16.018,0,0,0-16-16Z" transform="translate(90 127.824) rotate(180)" fill="url(#linear-gradient-2)"/>
        </g>
      </g>
      <g id="Mask_Group_19" data-name="Mask Group 19" transform="translate(3358.705 1642)" opacity="0.8" clip-path="url(#clip-path-2)">
        <g id="Group_1163" data-name="Group 1163" transform="translate(-73.162 21.854)">
          <rect id="Rectangle_272" data-name="Rectangle 272" width="145" height="204" rx="16" transform="translate(0.457 0.146)" fill="rgba(26,26,26,0)"/>
          <path id="Exclusion_6" data-name="Exclusion 6" d="M129,205H16A16,16,0,0,1,0,189V16A16,16,0,0,1,16,0H129a16,16,0,0,1,16,16V189a16,16,0,0,1-16,16ZM16.784.786a16.018,16.018,0,0,0-16,16V188.215a16.018,16.018,0,0,0,16,16H128.217a16.018,16.018,0,0,0,16-16V16.786a16.018,16.018,0,0,0-16-16Z" transform="translate(145.457 205.146) rotate(180)" fill="url(#linear-gradient-2)"/>
        </g>
      </g>
      <g id="Mask_Group_17" data-name="Mask Group 17" transform="translate(3033.63 1679.306)" opacity="0.82" clip-path="url(#clip-path-3)">
        <g id="Group_1161" data-name="Group 1161" transform="translate(32.798 13.15)">
          <rect id="Rectangle_264" data-name="Rectangle 264" width="90" height="128" rx="16" transform="translate(-0.429 -0.456)" fill="rgba(26,26,26,0)"/>
          <path id="Exclusion_4" data-name="Exclusion 4" d="M75,128H16A16,16,0,0,1,0,112V16A16,16,0,0,1,16,0H75A16,16,0,0,1,91,16v96a16,16,0,0,1-16,16ZM16.492.491a16.017,16.017,0,0,0-16,16v95.02a16.018,16.018,0,0,0,16,16H74.508a16.018,16.018,0,0,0,16-16V16.49a16.018,16.018,0,0,0-16-16Z" transform="translate(-0.429 -0.456)" fill="url(#linear-gradient-4)"/>
        </g>
      </g>
      <g id="Mask_Group_16" data-name="Mask Group 16" transform="translate(3058.455 1642)" opacity="0.8" clip-path="url(#clip-path-4)">
        <g id="Group_1160" data-name="Group 1160" transform="translate(52.259 21.854)">
          <rect id="Rectangle_260" data-name="Rectangle 260" width="145" height="204" rx="16" transform="translate(0.286 0.146)" fill="rgba(26,26,26,0)"/>
          <path id="Exclusion_3" data-name="Exclusion 3" d="M129,205H16A16,16,0,0,1,0,189V16A16,16,0,0,1,16,0H129a16,16,0,0,1,16,16V189a16,16,0,0,1-16,16ZM16.784.785a16.018,16.018,0,0,0-16,16V188.214a16.018,16.018,0,0,0,16,16H128.217a16.018,16.018,0,0,0,16-16V16.785a16.018,16.018,0,0,0-16-16Z" transform="translate(0.286 0.146)" fill="url(#linear-gradient-4)"/>
        </g>
      </g>
      <path id="Subtraction_16" data-name="Subtraction 16" d="M-5432.221,6742.991H-5576a15.894,15.894,0,0,1-11.314-4.687,15.894,15.894,0,0,1-4.687-11.314V6511a15.892,15.892,0,0,1,4.687-11.314A15.892,15.892,0,0,1-5576,6495h143.778a15.9,15.9,0,0,1,11.314,4.687,15.9,15.9,0,0,1,4.686,11.314v215.991a15.9,15.9,0,0,1-4.686,11.314A15.9,15.9,0,0,1-5432.221,6742.991ZM-5570.7,6509.252a8.01,8.01,0,0,0-8,8V6611a8.009,8.009,0,0,0,8,8h132.791a8.009,8.009,0,0,0,8-8v-93.743a8.01,8.01,0,0,0-8-8Z" transform="translate(8774.926 -4851.574)" fill="url(#radial-gradient)"/>
      <path id="Exclusion_2" data-name="Exclusion 2" d="M160,248H16A16,16,0,0,1,0,232V16A16,16,0,0,1,16,0H160a16,16,0,0,1,16,16V232a16,16,0,0,1-16,16ZM16.952.95a16.018,16.018,0,0,0-16,16v214.1a16.018,16.018,0,0,0,16,16h142.1a16.018,16.018,0,0,0,16-16V16.95a16.018,16.018,0,0,0-16-16Z" transform="translate(3183 1643)" fill="url(#linear-gradient-4)"/>
      <path id="Subtraction_17" data-name="Subtraction 17" d="M-5432.221,6742.991H-5576a15.894,15.894,0,0,1-11.314-4.687,15.894,15.894,0,0,1-4.687-11.314V6511a15.892,15.892,0,0,1,4.687-11.314A15.892,15.892,0,0,1-5576,6495h143.778a15.9,15.9,0,0,1,11.314,4.687,15.9,15.9,0,0,1,4.686,11.314v215.991a15.9,15.9,0,0,1-4.686,11.314A15.9,15.9,0,0,1-5432.221,6742.991ZM-5570.7,6509.252a8.01,8.01,0,0,0-8,8V6611a8.009,8.009,0,0,0,8,8h132.791a8.009,8.009,0,0,0,8-8v-93.743a8.01,8.01,0,0,0-8-8Z" transform="translate(8774.926 -4851.574)" fill="url(#radial-gradient)"/>
    </g>
    <text id="Hover_over_me" data-name="Hover over me" transform="translate(3197 1787)" fill="#d3d3d3" font-size="10" font-family="Inter-Regular, Inter" letter-spacing="0.04em"><tspan x="0" y="0">Hover over me</tspan></text>
  </g>
</svg>
