<svg xmlns="http://www.w3.org/2000/svg" xmlns:xlink="http://www.w3.org/1999/xlink" width="251" height="130" viewBox="0 0 251 130">
  <defs>
    <radialGradient id="radial-gradient" cx="0.5" cy="0" r="0.5" gradientTransform="scale(1 1.291)" gradientUnits="objectBoundingBox">
      <stop offset="0" stop-color="#fff" stop-opacity="0.149"/>
      <stop offset="1" stop-color="#1a1a1a" stop-opacity="0"/>
    </radialGradient>
    <radialGradient id="radial-gradient-2" cx="0.5" cy="0.5" r="0.5" gradientTransform="translate(0 0.101) scale(1 0.799)" gradientUnits="objectBoundingBox">
      <stop offset="0" stop-color="#fff" stop-opacity="0.18"/>
      <stop offset="1" stop-color="#1a1a1a" stop-opacity="0"/>
    </radialGradient>
    <linearGradient id="linear-gradient" x1="0.557" y1="0.011" x2="0.555" y2="0.956" gradientUnits="objectBoundingBox">
      <stop offset="0" stop-color="#fff" stop-opacity="0.2"/>
      <stop offset="1" stop-color="#1a1a1a" stop-opacity="0"/>
    </linearGradient>
  </defs>
  <g id="Spotify" transform="translate(-2073 -1778.423)">
    <rect id="Rectangle_255" data-name="Rectangle 255" width="249" height="130" rx="8" transform="translate(2073 1778.423)" fill="url(#radial-gradient)"/>
    <rect id="Rectangle_252" data-name="Rectangle 252" width="249" height="27" transform="translate(2073 1877.423)" fill="url(#radial-gradient-2)"/>
    <g id="Group_1152" data-name="Group 1152" transform="translate(2269.081 1786.758)" opacity="0.6">
      <path id="Icon_ionic-md-close" data-name="Icon ionic-md-close" d="M16.328,8.4l-.88-.88-3.522,3.522L8.4,7.523l-.88.88,3.522,3.522L7.523,15.448l.88.88,3.522-3.522,3.522,3.522.88-.88-3.522-3.522Z" transform="translate(25.076 -7.523)" fill="#fff"/>
      <path id="Icon_awesome-minus" data-name="Icon awesome-minus" d="M7.843,14.625H.6c-.333,0-.6.112-.6.251v.251c0,.139.27.251.6.251h7.24c.333,0,.6-.112.6-.251v-.251C8.447,14.737,8.176,14.625,7.843,14.625Z" transform="translate(0 -10.246)" fill="#fff" stroke="#fff" stroke-width="0.5"/>
      <g id="Group_1151" data-name="Group 1151" transform="translate(16.057 0)">
        <g id="Subtraction_15" data-name="Subtraction 15" transform="translate(2.863 -0.335)" fill="none">
          <path d="M6,6H4.222V1.778H0V0H6V6Z" stroke="none"/>
          <path d="M 6 6 L 4.222280025482178 6 L 4.222280025482178 1.777979969978333 L -4.440892098500626e-16 1.777979969978333 L -4.440892098500626e-16 -4.440892098500626e-16 L 6 -4.440892098500626e-16 L 6 6 Z" stroke="none" fill="#fff"/>
        </g>
        <g id="Rectangle_250" data-name="Rectangle 250" transform="translate(-0.137 0.665)" fill="none" stroke="#fff" stroke-width="1">
          <rect width="8" height="8" stroke="none"/>
          <rect x="0.5" y="0.5" width="7" height="7" fill="none"/>
        </g>
      </g>
    </g>
    <rect id="Rectangle_251" data-name="Rectangle 251" width="64" height="65" rx="4" transform="translate(2085 1803.423)" fill="rgba(255,255,255,0.28)" opacity="0.87"/>
    <g id="Group_1154" data-name="Group 1154" transform="translate(2084.677 1790.65)">
      <circle id="Ellipse_45" data-name="Ellipse 45" cx="1" cy="1" r="1" transform="translate(0.323 -0.227)" fill="#fff" opacity="0.6"/>
      <circle id="Ellipse_46" data-name="Ellipse 46" cx="1" cy="1" r="1" transform="translate(4.323 -0.227)" fill="#fff" opacity="0.6"/>
      <circle id="Ellipse_47" data-name="Ellipse 47" cx="1" cy="1" r="1" transform="translate(7.323 -0.227)" fill="#fff" opacity="0.6"/>
    </g>
    <g id="Group_1157" data-name="Group 1157" transform="translate(2161.552 1822.817)">
      <text id="Album" transform="translate(0.447 4.607)" fill="#ebebeb" font-size="8" font-family="Inter-Regular, Inter" letter-spacing="0.04em"><tspan x="0" y="0">Album</tspan></text>
      <text id="Meddle" transform="translate(0.447 25.607)" fill="#ebebeb" font-size="16" font-family="Inter-Bold, Inter" font-weight="700" letter-spacing="0.04em"><tspan x="0" y="0">Meddle</tspan></text>
    </g>
    <text id="_00:00" data-name="00:00" transform="translate(2085 1892.423)" fill="rgba(255,255,255,0.41)" font-size="6" font-family="Inter-Light, Inter" font-weight="300" letter-spacing="0.04em"><tspan x="0" y="0">00:00</tspan></text>
    <text id="_23:32" data-name="23:32" transform="translate(2294 1892.423)" fill="rgba(255,255,255,0.41)" font-size="6" font-family="Inter-Light, Inter" font-weight="300" letter-spacing="0.04em"><tspan x="0" y="0">23:32</tspan></text>
    <path id="Exclusion_1" data-name="Exclusion 1" d="M243,131H10a8.009,8.009,0,0,1-8-8V10a8.009,8.009,0,0,1,8-8H243a8.009,8.009,0,0,1,8,8V123A8.009,8.009,0,0,1,243,131ZM10,3a7.008,7.008,0,0,0-7,7V123a7.008,7.008,0,0,0,7,7H243a7.007,7.007,0,0,0,7-7V10a7.008,7.008,0,0,0-7-7Z" transform="translate(2073 1776.423)" fill="url(#linear-gradient)"/>
    <g id="Group_1178" data-name="Group 1178" transform="translate(2107.994 1889.907)">
      <line id="Line_13" data-name="Line 13" x2="179.126" transform="translate(0.001)" fill="none" stroke="#8b8b8b" stroke-linecap="round" stroke-width="4"/>
      <line id="Line_14" data-name="Line 14" x2="6.45" fill="none" stroke="#bfbfbf" stroke-linecap="round" stroke-width="4"/>
    </g>
  </g>
</svg>
