<svg xmlns="http://www.w3.org/2000/svg" xmlns:xlink="http://www.w3.org/1999/xlink" width="249" height="130" viewBox="0 0 249 130">
  <defs>
    <radialGradient id="radial-gradient" cx="0.5" cy="0" r="0.5" gradientTransform="scale(1 1.291)" gradientUnits="objectBoundingBox">
      <stop offset="0" stop-color="#fff" stop-opacity="0.149"/>
      <stop offset="1" stop-color="#1a1a1a" stop-opacity="0"/>
    </radialGradient>
    <radialGradient id="radial-gradient-2" cx="0.5" cy="0.5" r="0.5" gradientTransform="translate(0 0.101) scale(1 0.799)" gradientUnits="objectBoundingBox">
      <stop offset="0" stop-color="#fff" stop-opacity="0.18"/>
      <stop offset="1" stop-color="#1a1a1a" stop-opacity="0"/>
    </radialGradient>
    <linearGradient id="linear-gradient" x1="0.557" y1="0.011" x2="0.564" y2="1.017" gradientUnits="objectBoundingBox">
      <stop offset="0" stop-color="#fff" stop-opacity="0.2"/>
      <stop offset="1" stop-color="#1a1a1a" stop-opacity="0"/>
    </linearGradient>
  </defs>
  <g id="Group_1251" data-name="Group 1251" transform="translate(-2995 -1173)">
    <rect id="Rectangle_322" data-name="Rectangle 322" width="249" height="130" rx="7" transform="translate(2995 1173)" fill="url(#radial-gradient)"/>
    <g id="Spotify" transform="translate(920 -605.423)">
      <rect id="Rectangle_252" data-name="Rectangle 252" width="244" height="24" transform="translate(2078 1880.423)" fill="url(#radial-gradient-2)"/>
      <g id="Group_1152" data-name="Group 1152" transform="translate(2269.081 1786.758)" opacity="0.6">
        <path id="Icon_ionic-md-close" data-name="Icon ionic-md-close" d="M16.328,8.4l-.88-.88-3.522,3.522L8.4,7.523l-.88.88,3.522,3.522L7.523,15.448l.88.88,3.522-3.522,3.522,3.522.88-.88-3.522-3.522Z" transform="translate(25.076 -7.523)" fill="#fff"/>
        <path id="Icon_awesome-minus" data-name="Icon awesome-minus" d="M7.843,14.625H.6c-.333,0-.6.112-.6.251v.251c0,.139.27.251.6.251h7.24c.333,0,.6-.112.6-.251v-.251C8.447,14.737,8.176,14.625,7.843,14.625Z" transform="translate(0 -10.246)" fill="#fff" stroke="#fff" stroke-width="0.5"/>
        <g id="Group_1151" data-name="Group 1151" transform="translate(16.057 0)">
          <g id="Subtraction_15" data-name="Subtraction 15" transform="translate(2.863 -0.335)" fill="none">
            <path d="M6,6H4.222V1.778H0V0H6V6Z" stroke="none"/>
            <path d="M 6 6 L 4.222280025482178 6 L 4.222280025482178 1.777979969978333 L -4.440892098500626e-16 1.777979969978333 L -4.440892098500626e-16 -4.440892098500626e-16 L 6 -4.440892098500626e-16 L 6 6 Z" stroke="none" fill="#fff"/>
          </g>
          <g id="Rectangle_250" data-name="Rectangle 250" transform="translate(-0.137 0.665)" fill="none" stroke="#fff" stroke-width="1">
            <rect width="8" height="8" stroke="none"/>
            <rect x="0.5" y="0.5" width="7" height="7" fill="none"/>
          </g>
        </g>
      </g>
      <g id="Group_1154" data-name="Group 1154" transform="translate(2084.677 1790.65)">
        <circle id="Ellipse_45" data-name="Ellipse 45" cx="1" cy="1" r="1" transform="translate(0.323 -0.227)" fill="#fff" opacity="0.6"/>
        <circle id="Ellipse_46" data-name="Ellipse 46" cx="1" cy="1" r="1" transform="translate(4.323 -0.227)" fill="#fff" opacity="0.6"/>
        <circle id="Ellipse_47" data-name="Ellipse 47" cx="1" cy="1" r="1" transform="translate(8.323 -0.227)" fill="#fff" opacity="0.6"/>
      </g>
      <g id="Group_1249" data-name="Group 1249" transform="translate(0 5)">
        <rect id="Rectangle_251" data-name="Rectangle 251" width="64" height="65" rx="4" transform="translate(2085 1803.423)" fill="rgba(255,255,255,0.28)" opacity="0.87"/>
        <g id="Group_1157" data-name="Group 1157" transform="translate(2161.553 1823.353)">
          <path id="Path_484" data-name="Path 484" d="M3.034-34.909H6.078l3.215,7.843h.137l3.215-7.843h3.044v11.673H13.293v-7.6h-.1l-3.021,7.54H8.546L5.525-30.862h-.1v7.626H3.034ZM22.3-23.065a4.642,4.642,0,0,1-2.323-.55,3.72,3.72,0,0,1-1.5-1.562,5.144,5.144,0,0,1-.524-2.4,5.118,5.118,0,0,1,.524-2.371,3.87,3.87,0,0,1,1.479-1.59,4.293,4.293,0,0,1,2.243-.57,4.633,4.633,0,0,1,1.616.276A3.642,3.642,0,0,1,25.132-31a3.777,3.777,0,0,1,.875,1.388,5.543,5.543,0,0,1,.313,1.952v.667H18.928v-1.5h5.107a1.86,1.86,0,0,0-.228-.929,1.659,1.659,0,0,0-.63-.635,1.838,1.838,0,0,0-.932-.231,1.869,1.869,0,0,0-.977.254,1.819,1.819,0,0,0-.664.678,1.932,1.932,0,0,0-.245.943v1.431a2.435,2.435,0,0,0,.242,1.123,1.734,1.734,0,0,0,.687.73,2.074,2.074,0,0,0,1.054.256,2.3,2.3,0,0,0,.741-.114,1.538,1.538,0,0,0,.576-.342,1.487,1.487,0,0,0,.365-.559l2.246.148a3.061,3.061,0,0,1-.7,1.411,3.508,3.508,0,0,1-1.356.935A5.1,5.1,0,0,1,22.3-23.065Zm9.471-.028a3.277,3.277,0,0,1-1.8-.516,3.511,3.511,0,0,1-1.277-1.522,5.814,5.814,0,0,1-.47-2.471,5.733,5.733,0,0,1,.484-2.5A3.49,3.49,0,0,1,30-31.606a3.3,3.3,0,0,1,1.77-.5A2.72,2.72,0,0,1,33-31.857a2.445,2.445,0,0,1,.8.616,3.219,3.219,0,0,1,.465.721h.074v-4.389h2.422v11.673H34.36v-1.4h-.1a3.12,3.12,0,0,1-.482.721,2.426,2.426,0,0,1-.8.59A2.786,2.786,0,0,1,31.773-23.094Zm.769-1.932a1.554,1.554,0,0,0,.995-.322,2.033,2.033,0,0,0,.627-.9,3.85,3.85,0,0,0,.219-1.362,3.848,3.848,0,0,0-.217-1.356,1.947,1.947,0,0,0-.627-.889,1.6,1.6,0,0,0-1-.313,1.575,1.575,0,0,0-1.009.325,1.987,1.987,0,0,0-.621.9,3.868,3.868,0,0,0-.211,1.334,3.913,3.913,0,0,0,.214,1.348,2.033,2.033,0,0,0,.621.912A1.554,1.554,0,0,0,32.542-25.026Zm10.069,1.932a3.277,3.277,0,0,1-1.8-.516,3.511,3.511,0,0,1-1.277-1.522,5.814,5.814,0,0,1-.47-2.471,5.733,5.733,0,0,1,.484-2.5,3.49,3.49,0,0,1,1.291-1.5,3.3,3.3,0,0,1,1.77-.5,2.72,2.72,0,0,1,1.228.248,2.445,2.445,0,0,1,.8.616,3.219,3.219,0,0,1,.465.721h.074v-4.389h2.422v11.673H45.2v-1.4h-.1a3.12,3.12,0,0,1-.482.721,2.426,2.426,0,0,1-.8.59A2.786,2.786,0,0,1,42.611-23.094Zm.769-1.932a1.554,1.554,0,0,0,.995-.322,2.033,2.033,0,0,0,.627-.9,3.851,3.851,0,0,0,.219-1.362A3.848,3.848,0,0,0,45-28.97a1.947,1.947,0,0,0-.627-.889,1.6,1.6,0,0,0-1-.313,1.575,1.575,0,0,0-1.009.325,1.987,1.987,0,0,0-.621.9,3.868,3.868,0,0,0-.211,1.334,3.912,3.912,0,0,0,.214,1.348,2.033,2.033,0,0,0,.621.912A1.554,1.554,0,0,0,43.381-25.026Zm9.271-9.883v11.673H50.224V-34.909Zm6.569,11.844a4.642,4.642,0,0,1-2.323-.55,3.72,3.72,0,0,1-1.5-1.562,5.144,5.144,0,0,1-.524-2.4,5.118,5.118,0,0,1,.524-2.371,3.87,3.87,0,0,1,1.479-1.59,4.293,4.293,0,0,1,2.243-.57,4.633,4.633,0,0,1,1.616.276A3.642,3.642,0,0,1,62.051-31a3.777,3.777,0,0,1,.875,1.388,5.543,5.543,0,0,1,.313,1.952v.667H55.847v-1.5h5.107a1.86,1.86,0,0,0-.228-.929,1.659,1.659,0,0,0-.63-.635,1.838,1.838,0,0,0-.932-.231,1.869,1.869,0,0,0-.977.254,1.819,1.819,0,0,0-.664.678,1.932,1.932,0,0,0-.245.943v1.431a2.435,2.435,0,0,0,.242,1.123,1.734,1.734,0,0,0,.687.73,2.074,2.074,0,0,0,1.054.256A2.3,2.3,0,0,0,60-24.992a1.538,1.538,0,0,0,.576-.342,1.487,1.487,0,0,0,.365-.559l2.246.148a3.061,3.061,0,0,1-.7,1.411,3.508,3.508,0,0,1-1.356.935A5.1,5.1,0,0,1,59.221-23.065Z" transform="translate(-1.553 48.606)" fill="#ebebeb"/>
          <path id="Path_485" data-name="Path 485" d="M1.3-6.013H.4l2.024-5.624H3.4L5.425-6.013h-.9l-1.59-4.6H2.891Zm.151-2.2H4.371V-7.5H1.449ZM7.3-11.636v5.624H6.479v-5.624ZM8.779-6.013v-5.624H9.6v2.09h.049a2.3,2.3,0,0,1,.206-.3,1.18,1.18,0,0,1,.373-.3,1.317,1.317,0,0,1,.632-.13,1.647,1.647,0,0,1,.912.258,1.742,1.742,0,0,1,.63.744,2.723,2.723,0,0,1,.229,1.17A2.747,2.747,0,0,1,12.4-6.942a1.767,1.767,0,0,1-.626.75,1.615,1.615,0,0,1-.909.262,1.334,1.334,0,0,1-.627-.129,1.186,1.186,0,0,1-.38-.3,2.286,2.286,0,0,1-.211-.308H9.581v.656Zm.8-2.109a2.162,2.162,0,0,0,.129.78,1.173,1.173,0,0,0,.373.523.952.952,0,0,0,.6.188.958.958,0,0,0,.615-.2,1.21,1.21,0,0,0,.375-.534,2.138,2.138,0,0,0,.128-.761,2.118,2.118,0,0,0-.125-.75A1.161,1.161,0,0,0,11.3-9.4a.982.982,0,0,0-.619-.192.977.977,0,0,0-.6.184,1.125,1.125,0,0,0-.372.513A2.142,2.142,0,0,0,9.584-8.122Zm6.949.36V-10.23h.824v4.218h-.807v-.73H16.5a1.311,1.311,0,0,1-.465.562,1.353,1.353,0,0,1-.795.224,1.411,1.411,0,0,1-.718-.18,1.234,1.234,0,0,1-.489-.534,1.947,1.947,0,0,1-.177-.876V-10.23h.821v2.584a.964.964,0,0,0,.239.686.811.811,0,0,0,.621.255A1.015,1.015,0,0,0,16-6.82a.978.978,0,0,0,.382-.349A1.05,1.05,0,0,0,16.532-7.762Zm2.234,1.749V-10.23h.788v.686h.052a1.1,1.1,0,0,1,.431-.545,1.277,1.277,0,0,1,.717-.2,1.221,1.221,0,0,1,.71.2,1.162,1.162,0,0,1,.424.544h.044a1.2,1.2,0,0,1,.481-.54,1.474,1.474,0,0,1,.785-.2,1.277,1.277,0,0,1,.938.36A1.464,1.464,0,0,1,24.5-8.841v2.828h-.821V-8.764a.759.759,0,0,0-.233-.621.849.849,0,0,0-.557-.192.8.8,0,0,0-.623.246.9.9,0,0,0-.222.63v2.688h-.818v-2.8a.736.736,0,0,0-.214-.552.765.765,0,0,0-.557-.209.8.8,0,0,0-.43.122.9.9,0,0,0-.316.339,1.025,1.025,0,0,0-.119.5v2.6Z" transform="translate(0.447 10.707)" fill="#ebebeb"/>
        </g>
      </g>
      <path id="Exclusion_1" data-name="Exclusion 1" d="M243,132H10a8.009,8.009,0,0,1-8-8V10a8.009,8.009,0,0,1,8-8H243a8.009,8.009,0,0,1,8,8V124A8.009,8.009,0,0,1,243,132ZM10,3.008a7.008,7.008,0,0,0-7,7V123.992a7.008,7.008,0,0,0,7,7H243a7.008,7.008,0,0,0,7-7V10.008a7.008,7.008,0,0,0-7-7Z" transform="translate(2073 1776.423)" fill="url(#linear-gradient)"/>
      <g id="Group_1250" data-name="Group 1250" transform="translate(2085 1889.19)">
        <text id="_00:00" data-name="00:00" transform="translate(0 6.233)" fill="rgba(255,255,255,0.41)" font-size="6" font-family="Inter-Light, Inter" font-weight="300" letter-spacing="0.04em"><tspan x="0" y="0">00:00</tspan></text>
        <text id="_23:32" data-name="23:32" transform="translate(209 6.233)" fill="rgba(255,255,255,0.41)" font-size="6" font-family="Inter-Light, Inter" font-weight="300" letter-spacing="0.04em"><tspan x="0" y="0">23:32</tspan></text>
        <g id="Group_1178" data-name="Group 1178" transform="translate(22.994 3.484)">
          <line id="Line_13" data-name="Line 13" x2="179.126" transform="translate(0.001)" fill="none" stroke="#8b8b8b" stroke-linecap="round" stroke-width="4"/>
          <line id="Line_14" data-name="Line 14" x2="6.45" fill="none" stroke="#bfbfbf" stroke-linecap="round" stroke-width="4"/>
        </g>
      </g>
    </g>
  </g>
</svg>
