<svg xmlns="http://www.w3.org/2000/svg" width="92" height="92" viewBox="0 0 92 92">
  <g id="Group_821" data-name="Group 821" transform="translate(-796 -348)">
    <g id="Ellipse_10" data-name="Ellipse 10" transform="translate(796 348)" fill="none" stroke="#fff" stroke-width="4">
      <circle cx="46" cy="46" r="46" stroke="none"/>
      <circle cx="46" cy="46" r="44" fill="none"/>
    </g>
    <path id="Path_426" data-name="Path 426" d="M-1.445-14.57v-.156l.234-.234a1.556,1.556,0,0,1,.449-.762,3.226,3.226,0,0,0,.566-.84.874.874,0,0,1,.39-.469A1.343,1.343,0,0,0,.68-17.6a2.205,2.205,0,0,1,.916-.8l3.978-5.039q.663-.82.975-1.133A12.818,12.818,0,0,0,8.617-28.4a1.993,1.993,0,0,1,.468-.469,32.431,32.431,0,0,0,1.8-4.336l.391-.625q.04-.117.666-1.27a8.479,8.479,0,0,1,.92-1.465,3.606,3.606,0,0,0,.568-1.445l.86-1.719q.352-.781,1.055-2.5a3.127,3.127,0,0,0,.977-.43.7.7,0,0,0-.117-.352q-.117-.2-.2-.352a1.673,1.673,0,0,1,.625-.9l.156-.156a1.611,1.611,0,0,1,.313-.625l.078-.234A8.172,8.172,0,0,1,19-47.891a3.2,3.2,0,0,1,2.129-1.055q.938,0,1.055.7a3.526,3.526,0,0,0,.371,1.152,1.845,1.845,0,0,1,.254.918v.977l-.234,3.359a1.279,1.279,0,0,0,.078.313,1.329,1.329,0,0,0-.43.82l-1.6,4.3q-.2.039-.82,1.211l-.586,1.133a5.673,5.673,0,0,1-1.445,2.07l-.234.313q-.43.625-.742.625a2.134,2.134,0,0,1-.684,1.621,4.422,4.422,0,0,0-1.035,1.445,2.587,2.587,0,0,1-1.328,1.27q-.312.625-.781,1.367l-1.758,2.383a7.183,7.183,0,0,0-1.074,2.363,7.108,7.108,0,0,1-.762,1.973l-.156.391q-.9.547-.9.664,0,.2-.156,1.25a5.014,5.014,0,0,1-.391.9l.078.859-.508.078a2.282,2.282,0,0,0-.234.664v.781l.078.078q.156,0,.352-.547a10.642,10.642,0,0,1,1.406-.82l.273-.156a2.566,2.566,0,0,1,.625-1.172l.781-1.055,1.133-.977a13.106,13.106,0,0,0,1.6-1.68.225.225,0,0,1,.078-.156l.547.078.273-.156-.117-.7q.039-.039.586-.469l1.212-1.211.625-.469.8-.7a1.384,1.384,0,0,1,.8-.43l.469.156A3.631,3.631,0,0,1,20.7-25.312a9.035,9.035,0,0,1,1.876-.7l2.227.508a7.652,7.652,0,0,0,1.348.918q1.035.605,1.035,2.988a4.457,4.457,0,0,1-.469,1.211l.078.7q0,.234-.625.82l-.234.781-2.266,2.07a2.68,2.68,0,0,1-.8.391,2.387,2.387,0,0,0-.84.469,11.764,11.764,0,0,1-1.915,1.074q-1.485.723-1.485,1.191a2.848,2.848,0,0,0,.527.879,7.631,7.631,0,0,1,.762,1.23A4.541,4.541,0,0,0,20.8-9.609a2.275,2.275,0,0,0,1.114.742,7.542,7.542,0,0,1,.977.234,2.345,2.345,0,0,1,.7-.332,2.794,2.794,0,0,0,.977-.566l.547-.156a.96.96,0,0,0,.762-.469,3.062,3.062,0,0,1,1.114-.918,4.9,4.9,0,0,0,1.426-1.211q.527-.684.957-.684h.469q.547,0,.625-.781a4.461,4.461,0,0,0,1.524-1,3.8,3.8,0,0,1,1.055-.84l.234-.156q1.055-1.133,1.758-1.133a.554.554,0,0,1,.547.391,9.094,9.094,0,0,0-.312,1.8,4.744,4.744,0,0,1-.449,1.406,7.292,7.292,0,0,1-.488,1.055l-.43-.156h-.078a.644.644,0,0,0-.469.273,1.108,1.108,0,0,1-.469.352,1.078,1.078,0,0,0-.488.469,1.624,1.624,0,0,1-.8.605,2.167,2.167,0,0,0-.879.605,3.757,3.757,0,0,1-.488.508,2.147,2.147,0,0,0-.312.293,1.5,1.5,0,0,1-.352.293,2.2,2.2,0,0,0-.488.469,2.33,2.33,0,0,1-.762.586,1.617,1.617,0,0,0-.723.723,1.472,1.472,0,0,1-.664.684,12.127,12.127,0,0,0-1.152.664l-1.055.742a1.712,1.712,0,0,1-.469.234h-.117l-.391-.078q-.156,0-.156.234-.469.664-.859.664a2.881,2.881,0,0,0-1.074.273,2.8,2.8,0,0,1-.957.273,10.316,10.316,0,0,1-2.07-.391,1.867,1.867,0,0,0-.7-.508q-.391-.156-.977-1.445l-.547-.469q-.664-.469-2.148-3.984l-.352-.469q-1.25-.273-1.25-1.211a4.429,4.429,0,0,1,.469-1.133l.391-.234a.919.919,0,0,1,.566-.547.923.923,0,0,0,.566-.566.751.751,0,0,1,.7-.488h.156a4.949,4.949,0,0,1,1.074-.84,4.3,4.3,0,0,0,.859-.605,5.655,5.655,0,0,1,1.719-.781q1.387-.469,1.387-2.969,0-.234-.391-.312a3.853,3.853,0,0,0-1.68,1.016,1.531,1.531,0,0,0-1.211.8q-.43.723-.781.723l-.742-.078q-.234,0-.469.645t-.625.645h-.312l-.508.234-.156.625q-.9.977-1.445.977l-.312.9a4.042,4.042,0,0,0-1.445,1.172l-.234.156a5.683,5.683,0,0,0-.469.586.526.526,0,0,1-.469.234,2.6,2.6,0,0,0-.9,1.289q-.469,0-.625.723T7.109-9.1H6.8a3.192,3.192,0,0,1-.664,1.113,4.265,4.265,0,0,0-.625.645,3.945,3.945,0,0,0-.547.859,2.63,2.63,0,0,1-.781.9,11.336,11.336,0,0,0-.9.781l-.625.391a5.652,5.652,0,0,0-.664.508A.53.53,0,0,1,1.6-3.75,2.09,2.09,0,0,1,.488-4.355q-.723-.605-.723-.918a9.2,9.2,0,0,1,.391-3.2l1.055-2.734A10.116,10.116,0,0,1,2.324-13.4a3.024,3.024,0,0,0,.645-1.328q0-.547-.391-.547a11.9,11.9,0,0,1-1.8,1.6Q-1.445-13.945-1.445-14.57Zm42.2-7.187.547-.977a4.837,4.837,0,0,1,.606-.723,5.08,5.08,0,0,0,.8-1.914,5.543,5.543,0,0,1,.958-2.129,1.972,1.972,0,0,1,1.544-.586,3.312,3.312,0,0,1,1.544.566q.958.566,1.877,3.418a15.579,15.579,0,0,1,.919,4.023,3.53,3.53,0,0,0,.274,1.191,7.691,7.691,0,0,1,.352,1.113,4.457,4.457,0,0,0-.312.742l.078,1.6-.469,1.289v.938a3.1,3.1,0,0,0-.469.977.84.84,0,0,0,.156.469,6.643,6.643,0,0,0,2.224-1.27,1.707,1.707,0,0,1,.76-.605,4.074,4.074,0,0,0,1.229-1.016l.741-.391q.39-.469.663-.84a1.544,1.544,0,0,1,.643-.527,4.176,4.176,0,0,0,.877-.547,10.366,10.366,0,0,1,1.482-.9l.39-.469a4.4,4.4,0,0,1,1.384-1.055,5.991,5.991,0,0,1,.877-.391q.273,0,.566.723a3.782,3.782,0,0,1,.292,1.426,1.777,1.777,0,0,1-.761,1.309,10.844,10.844,0,0,0-1.034.957,2.545,2.545,0,0,1-1.248.547q-.078.039-1.288,1.6l-.781.469-.39.508q-.078.156-1.053.313-.039,0-.176.391t-.839.547a10.276,10.276,0,0,0-1.443,1.445l-.82.156a2.75,2.75,0,0,1-.39.9q-.937.234-1.054.781a1.475,1.475,0,0,1-.39.156l-.156.117a4.069,4.069,0,0,1-1.756.859l-.9.234-.312.469q0,.2-.956.508a3.556,3.556,0,0,0-1.424.781l-.663.508a3.915,3.915,0,0,0-1.522.859h-.547a3.729,3.729,0,0,0-1.717.8,3.705,3.705,0,0,1-1.873.8,5.966,5.966,0,0,1-3.1-.566,4.916,4.916,0,0,1-1.385-1.406,11.7,11.7,0,0,0-1-1.348,1.436,1.436,0,0,1-.449-.82.734.734,0,0,1,.371-.547,3.248,3.248,0,0,0,.8-1.113q.429-.84,2.186-1.074a2.688,2.688,0,0,0,.566-.234,1.962,1.962,0,0,1,.8-.234q.391,0,.976.7,0,.078.156.078l.624-.078a1.39,1.39,0,0,0,.585.313,3.1,3.1,0,0,0,1.99-.937l.156-.078h.313q.117,0,.39-.664l.663-1.367,1.366-1.758v-.391a3.264,3.264,0,0,1,.234-.7v-.586q0-.352.468-.449t.468-.488l-.078-.312a1.318,1.318,0,0,1-.312-.664l.39-.781-.078-.82.156-.312a4.681,4.681,0,0,1-.156-.625l.156-.977q0-.039-.215-.742t-.332-.7q-.234,0-1.486,1.211a7.812,7.812,0,0,0-1.486,1.719,2.164,2.164,0,0,1-1,.918,2.437,2.437,0,0,0-1.037.918,1.022,1.022,0,0,1-.665.586l-2.621,2.109-2.855,2.109q-.313.352-.391.352-1.447,0-1.447-1.6A5.68,5.68,0,0,1,32.11-14.8l.41-.234q.137-.078.137-.117t-.078-.039l.234.156h.078a12.436,12.436,0,0,1,1.877-1.133,1.605,1.605,0,0,0,.782-.859L37.194-18.2a23.138,23.138,0,0,0,1.916-1.719A11.257,11.257,0,0,0,40.752-21.758Z" transform="translate(812 412)" fill="#dfdfdf"/>
  </g>
</svg>
