<svg xmlns="http://www.w3.org/2000/svg" width="45.782" height="51.922" viewBox="0 0 45.782 51.922">
  <g id="layer1" style="isolation: isolate">
    <g id="g3013">
      <path id="polygon2989" d="M120.415,100.62l-4.171,46.725-18.748,5.2-18.7-5.19L74.633,100.62Z" transform="translate(-74.633 -100.62)" fill="#191919"/>
      <path id="polygon2991" d="M271.15,170.822l3.564-39.928H256v44.128Z" transform="translate(-233.109 -127.073)" fill="#212121"/>
      <path id="polygon2993" d="M150.31,268.217l.514,5.731H163.65v-5.731Z" transform="translate(-140.758 -247.064)" fill="#2d2d2d"/>
      <path id="polygon2995" d="M156.5,176.3H142.132l.521,5.732H156.5Z" transform="translate(-133.613 -166.752)" fill="#2d2d2d"/>
      <path id="polygon2997" d="M168.979,348.584v-5.963l-.025.007-6.383-1.724-.408-4.571h-5.753l.8,9,11.741,3.259Z" transform="translate(-146.088 -306.582)" fill="#2d2d2d"/>
      <path id="polygon3005" d="M262.9,193.637l-.665,7.433-6.392,1.725v5.963l11.75-3.256.086-.968,1.347-15.089.14-1.539,1.035-11.6H255.843v5.732h8.076l-.522,5.869h-7.555v5.731Z" transform="translate(-232.972 -166.752)" fill="#2d2d2d"/>
    </g>
  </g>
</svg>
