<svg xmlns="http://www.w3.org/2000/svg" width="45.035" height="51.068" viewBox="0 0 45.035 51.068">
  <g id="HTML5" style="isolation: isolate">
    <path id="Path_26" data-name="Path 26" d="M78.7,146.578,74.6,100.6h45.035l-4.1,45.953L97.08,151.668" transform="translate(-74.6 -100.6)" fill="#191919"/>
    <path id="Path_27" data-name="Path 27" d="M256,174.384V131h18.409L270.9,170.225" transform="translate(-233.483 -127.226)" fill="#212121"/>
    <path id="Path_28" data-name="Path 28" d="M142,176.3h14.151v5.636h-7.969l.521,5.772h7.448v5.623H143.539m.248,2.83h5.66l.4,4.506,6.306,1.688v5.884l-11.569-3.227" transform="translate(-133.634 -166.903)" fill="#2d2d2d"/>
    <path id="Path_29" data-name="Path 29" d="M269.926,176.3H255.8v5.636h13.6m-.509,5.772H255.8v5.636h6.951l-.658,7.324-6.293,1.688v5.859l11.544-3.2" transform="translate(-233.307 -166.903)" fill="#2d2d2d"/>
  </g>
</svg>
