<svg xmlns="http://www.w3.org/2000/svg" width="60.671" height="43.067" viewBox="0 0 60.671 43.067">
  <path id="javascript_logo" d="M37.8,30.338c1.855,3.024,4.266,5.259,8.532,5.259,3.579,0,5.873-1.8,5.873-4.266,0-2.966-2.352-4.017-6.3-5.741l-2.162-.935C37.511,22,33.362,18.666,33.362,11.624,33.362,5.138,38.3.2,46.028.2c5.493,0,9.452,1.914,12.3,6.925l-6.735,4.324c-1.476-2.659-3.082-3.711-5.566-3.711-2.527,0-4.134,1.607-4.134,3.711,0,2.6,1.607,3.652,5.318,5.259l2.162.92c7.348,3.156,11.5,6.37,11.5,13.586,0,7.787-6.121,12.052-14.331,12.052-8.035,0-13.221-3.828-15.763-8.838ZM7.242,31.1c1.359,2.41,2.6,4.456,5.566,4.456,2.849,0,4.631-1.11,4.631-5.435V.7h8.648V30.221c0,8.955-5.245,13.031-12.914,13.031-6.925,0-10.942-3.579-12.973-7.9Z" transform="translate(-0.2 -0.2)" fill="#212121"/>
</svg>
