<svg id="nextjs-logotype-light-background" xmlns="http://www.w3.org/2000/svg" width="184.311" height="37.158" viewBox="0 0 184.311 37.158">
  <path id="Path_31" data-name="Path 31" d="M261.919.033h32.1V5.959H281.288V37.132h-6.368V5.959h-13Z" transform="translate(-139.395 -0.018)" fill="#212121"/>
  <path id="Path_32" data-name="Path 32" d="M112.528.033V5.959H86.795v9.532h20.695v5.925H86.795v9.79h25.733v5.925h-32.1V5.959h0V.033Z" transform="translate(-42.802 -0.018)" fill="#212121"/>
  <path id="Path_33" data-name="Path 33" d="M173.839.066h-8.333l29.848,37.1h8.358L188.786,18.628,203.688.094l-8.334.013L184.613,13.447Z" transform="translate(-88.083 -0.035)" fill="#212121"/>
  <path id="Path_34" data-name="Path 34" d="M182.363,50.812l-4.173-5.189L165.455,61.439h8.357Z" transform="translate(-88.056 -24.281)" fill="#212121"/>
  <path id="Path_35" data-name="Path 35" d="M37.848,37.114,7.96,0H0V37.1H6.368V7.93L29.848,37.114Z" fill="#212121" fill-rule="evenodd"/>
  <path id="Path_36" data-name="Path 36" d="M331.687,75.091a1.65,1.65,0,0,1-1.2-.485A1.559,1.559,0,0,1,330,73.429a1.541,1.541,0,0,1,.492-1.161,1.65,1.65,0,0,1,1.2-.485,1.63,1.63,0,0,1,1.173.485,1.573,1.573,0,0,1,.509,1.161,1.609,1.609,0,0,1-.238.837,1.72,1.72,0,0,1-.617.6A1.592,1.592,0,0,1,331.687,75.091Z" transform="translate(-175.628 -38.204)" fill="#212121"/>
  <path id="Path_37" data-name="Path 37" d="M348.755,45.445h2.822V56.316a5.024,5.024,0,0,1-.643,2.572,4.277,4.277,0,0,1-1.778,1.654,5.788,5.788,0,0,1-2.645.578,6.077,6.077,0,0,1-2.477-.489,3.986,3.986,0,0,1-1.743-1.446,4.159,4.159,0,0,1-.643-2.385h2.826a2.108,2.108,0,0,0,.28,1.08,1.8,1.8,0,0,0,.751.693,2.458,2.458,0,0,0,1.113.242,2.194,2.194,0,0,0,1.156-.285,1.808,1.808,0,0,0,.725-.842,3.463,3.463,0,0,0,.254-1.373Z" transform="translate(-181.828 -24.186)" fill="#212121"/>
  <path id="Path_38" data-name="Path 38" d="M377.349,49.46a2.05,2.05,0,0,0-.9-1.539,3.523,3.523,0,0,0-2.058-.553,3.993,3.993,0,0,0-1.523.264,2.29,2.29,0,0,0-.975.718,1.755,1.755,0,0,0-.345,1.033,1.514,1.514,0,0,0,.229.838,1.877,1.877,0,0,0,.617.6,4.119,4.119,0,0,0,.863.412q.479.166.958.281l1.471.361a10.171,10.171,0,0,1,1.713.553,6.066,6.066,0,0,1,1.48.876,3.922,3.922,0,0,1,1.036,1.275,3.794,3.794,0,0,1,.384,1.752,4.128,4.128,0,0,1-.7,2.389,4.635,4.635,0,0,1-2.036,1.607,8.07,8.07,0,0,1-3.214.578,8.189,8.189,0,0,1-3.171-.561,4.5,4.5,0,0,1-2.917-4.239h2.8a2.346,2.346,0,0,0,.5,1.344,2.718,2.718,0,0,0,1.161.8,4.665,4.665,0,0,0,1.6.264,4.48,4.48,0,0,0,1.631-.276,2.55,2.55,0,0,0,1.1-.769,1.8,1.8,0,0,0,.406-1.156,1.488,1.488,0,0,0-.358-1,2.749,2.749,0,0,0-.984-.663,10.107,10.107,0,0,0-1.475-.48l-1.786-.451a7.163,7.163,0,0,1-3.059-1.492,3.381,3.381,0,0,1-1.122-2.661,3.923,3.923,0,0,1,.755-2.394,4.908,4.908,0,0,1,2.054-1.594,7.269,7.269,0,0,1,2.951-.57,7.011,7.011,0,0,1,2.93.57,4.773,4.773,0,0,1,1.98,1.577,3.991,3.991,0,0,1,.742,2.313Z" transform="translate(-195.989 -23.949)" fill="#212121"/>
</svg>
