<svg id="nodejs" xmlns="http://www.w3.org/2000/svg" xmlns:xlink="http://www.w3.org/1999/xlink" width="48.008" height="54.882" viewBox="0 0 48.008 54.882">
  <defs>
    <linearGradient id="linear-gradient" y1="0.5" x2="1.001" y2="0.5" gradientUnits="objectBoundingBox">
      <stop offset="0" stop-color="#545454"/>
      <stop offset="0" stop-color="#171717"/>
      <stop offset="0.264" stop-color="#2a2a2a"/>
      <stop offset="0.542" stop-color="#3d3d3d"/>
      <stop offset="0.823" stop-color="#1a1a1a"/>
      <stop offset="1" stop-color="#0f0f0f"/>
    </linearGradient>
  </defs>
  <path id="Path_42" data-name="Path 42" d="M22.833.82a2.623,2.623,0,0,1,2.6,0L46.862,13.251A2.557,2.557,0,0,1,48.138,15.5V40.313a2.666,2.666,0,0,1-1.275,2.251L25.435,55a2.624,2.624,0,0,1-2.6,0L1.405,42.564A2.557,2.557,0,0,1,.13,40.313V15.451A2.666,2.666,0,0,1,1.405,13.2Z" transform="translate(-0.13 -0.46)" fill-rule="evenodd" fill="url(#linear-gradient)"/>
  <path id="Path_43" data-name="Path 43" d="M46.854,13.207,25.528.776A3.537,3.537,0,0,0,24.865.52L.733,41.957a2.687,2.687,0,0,0,.714.614L22.926,55a2.409,2.409,0,0,0,2.041.2l22.55-41.386A1.914,1.914,0,0,0,46.854,13.207Z" transform="translate(-0.223 -0.467)" fill="#2b2b2b" opacity="0.66"/>
  <path id="Path_44" data-name="Path 44" d="M25.645,54.992,47.022,42.561A2.469,2.469,0,0,0,48.2,40.31v-.1L25.033.562a2.482,2.482,0,0,0-1.99.256L1.82,13.1,24.88,55.248A2.685,2.685,0,0,0,25.645,54.992Z" transform="translate(-0.391 -0.457)" fill="#1a1a1a"/>
</svg>
