<svg id="redux" xmlns="http://www.w3.org/2000/svg" width="49.386" height="46.883" viewBox="0 0 49.386 46.883">
  <path id="Path_39" data-name="Path 39" d="M45.369,58.935a3.53,3.53,0,0,0-.377-7.039h-.126a3.516,3.516,0,0,0-3.394,3.645,3.609,3.609,0,0,0,1.006,2.325c-2.137,4.211-5.4,7.29-10.307,9.867a17,17,0,0,1-10.244,1.948,8.736,8.736,0,0,1-6.41-3.708,9.231,9.231,0,0,1-.5-9.741,14.793,14.793,0,0,1,4.273-5.028c-.251-.817-.628-2.2-.817-3.205-9.113,6.6-8.17,15.523-5.4,19.733,2.074,3.142,6.285,5.09,10.935,5.09a15.45,15.45,0,0,0,3.771-.44A24.117,24.117,0,0,0,45.369,58.935Z" transform="translate(-11.15 -26.193)" fill="#212121"/>
  <path id="Path_40" data-name="Path 40" d="M66.962,46.758c-4.776-5.593-11.815-8.673-19.859-8.673H46.1A3.453,3.453,0,0,0,43.018,36.2h-.126a3.52,3.52,0,0,0,.126,7.039h.126A3.54,3.54,0,0,0,46.223,41.1h1.131a23.953,23.953,0,0,1,13.386,4.085A16.835,16.835,0,0,1,67.4,53.231a8.711,8.711,0,0,1-.126,7.416,9.226,9.226,0,0,1-8.61,5.153,16.073,16.073,0,0,1-6.159-1.32c-.691.628-1.948,1.634-2.828,2.262a19.4,19.4,0,0,0,8.107,1.948c6.033,0,10.5-3.331,12.192-6.662,1.823-3.645,1.7-9.93-3.017-15.271Z" transform="translate(-21.682 -21.808)" fill="#212121"/>
  <path id="Path_41" data-name="Path 41" d="M30.337,47.111A3.53,3.53,0,0,0,33.856,50.5h.126a3.52,3.52,0,0,0-.126-7.039h-.126a1.07,1.07,0,0,0-.44.063,23.027,23.027,0,0,1-3.268-13.952,16.859,16.859,0,0,1,3.708-9.741c1.823-2.325,5.342-3.456,7.73-3.519,6.662-.126,9.49,8.17,9.678,11.5.817.189,2.2.628,3.142.943C53.527,18.579,47.242,13.3,41.209,13.3c-5.656,0-10.872,4.085-12.946,10.118-2.891,8.044-1.006,15.774,2.514,21.87a2.823,2.823,0,0,0-.44,1.823Z" transform="translate(-16.982 -13.3)" fill="#212121"/>
</svg>
