<svg xmlns="http://www.w3.org/2000/svg" width="58.394" height="35.063" viewBox="0 0 58.394 35.063">
  <g id="tailwind" style="isolation: isolate">
    <g id="Group_33" data-name="Group 33">
      <path id="Path_20" data-name="Path 20" d="M283.026,226.33c-10.273.326-13.326,7.665-14.026,11.64.912-1.474,3.785-4.707,8.015-4.707,4.93,0,8.683,5.5,10.973,7.22a17.343,17.343,0,0,0,15.711,2.608c5.852-1.781,8.566-7.994,9.16-10.941-2.831,3.848-7.124,6.16-12.436,3.435C296.766,233.708,294.03,225.98,283.026,226.33Z" transform="translate(-254.465 -226.318)" fill="#212121"/>
      <path id="Path_21" data-name="Path 21" d="M54.526,500.83c-10.273.327-13.326,7.665-14.026,11.641.912-1.474,3.785-4.707,8.015-4.707,4.93,0,8.683,5.5,10.973,7.22A17.343,17.343,0,0,0,75.2,517.591c5.852-1.781,8.566-7.994,9.16-10.941-2.831,3.848-7.124,6.16-12.436,3.435C68.266,508.208,65.53,500.48,54.526,500.83Z" transform="translate(-40.5 -483.357)" fill="#212121"/>
    </g>
  </g>
</svg>
